# Blender 4.1.0
# www.blender.org
o Cube.26545
v -15.445662 0.004208 -10.076774
v -15.445662 0.004208 -12.614933
v 0.376086 0.034064 -10.076774
v 0.376086 0.034064 -12.614933
v -56.849098 0.004208 -12.020003
v -56.316822 -1.293442 -7.786366
v 31.478477 0.034064 6.720781
v 31.478477 -1.293442 6.720779
v -15.445662 3.161266 -10.991259
v -15.445662 1.676581 -10.991259
v 0.376086 3.161266 -10.991259
v 0.376086 1.676581 -10.991259
v -13.010235 0.004208 -10.076774
v -11.250360 0.004208 -10.076774
v 38.622478 -1.293442 1.526277
v -53.558285 0.004208 1.526277
v -6.751797 0.004208 -10.076774
v -5.252276 0.004208 -10.076774
v -3.752755 0.004208 -10.076774
v -2.005898 0.034064 -10.076774
v 43.084480 0.034064 -1.430888
v 38.622478 0.034064 1.526277
v 44.563309 0.034064 -12.189476
v 44.896755 0.034064 -7.353095
v -55.315586 0.004208 -2.565413
v -56.316822 0.004208 -7.786366
v 0.376086 0.034064 -10.991259
v -15.445662 0.004208 -10.991259
v -15.445662 1.676581 -10.076774
v -15.445662 3.161266 -10.076774
v -15.445662 3.161266 -12.614933
v -15.445662 1.676581 -12.614933
v 0.376086 3.161266 -12.614933
v 0.376086 1.676581 -12.614933
v 0.376086 3.161266 -10.076774
v 0.376086 1.676581 -10.076774
v -2.205897 3.161266 -10.076774
v -2.205897 1.676581 -10.076774
v -3.752755 3.161266 -10.076774
v -3.752755 1.676581 -10.076774
v -5.252276 3.161266 -10.076774
v -5.252276 1.676581 -10.076774
v -6.751798 3.161266 -10.076774
v -6.751798 1.676581 -10.076774
v -8.251319 3.161266 -10.076774
v -6.751798 0.034064 -9.159303
v -9.750840 3.161266 -10.076774
v -9.750839 1.676581 -10.076774
v -11.250360 3.161266 -10.076774
v -11.250360 1.676581 -10.076774
v -12.810235 3.161266 -10.076774
v -12.810235 1.676581 -10.076774
v -9.750839 9.429384 -12.514933
v -9.750839 9.429384 -14.041826
v -5.252276 9.429384 -12.514933
v -6.751797 9.429384 -12.514933
v -11.250360 9.429384 -12.514933
v -11.250360 9.429384 -14.041826
v -3.752755 9.429384 -14.041826
v -3.752755 9.429384 -12.514933
v 0.376086 9.429384 -12.514933
v 0.376086 9.429384 -14.041826
v -12.810235 9.429384 -12.514933
v -12.810235 9.429384 -14.041826
v -15.445662 9.429384 -14.041826
v -15.445662 9.429384 -12.514933
v -2.205897 9.429384 -12.514933
v -2.205897 9.429384 -14.041826
v -13.010235 0.004208 -9.159303
v -11.250360 1.676581 -9.159303
v -3.752755 0.034064 -9.159303
v -2.005898 0.034064 -9.159303
v -11.250360 0.004208 -9.159303
v -9.750840 0.004208 -9.159303
v -8.251319 0.034064 -9.159303
v -3.752755 1.676581 -9.159303
v -6.751798 1.676581 -9.159303
v -8.251319 1.676581 -9.159303
v -9.750839 1.676581 -9.159303
v -6.751798 3.161266 -9.159303
v -8.251319 3.161266 -9.159303
v -5.252276 0.034064 -9.159303
v -5.252276 1.676581 -9.159303
v -3.752755 4.656960 -12.514933
v -12.810235 3.161266 -10.991259
v -11.250360 3.161266 -10.991259
v -9.750839 3.161266 -10.991259
v -8.251319 3.161266 -10.991259
v -6.751798 3.161266 -10.991259
v -5.252276 3.161266 -10.991259
v -3.752755 3.161266 -10.991259
v -2.205897 3.161266 -10.991259
v 0.376086 3.161266 -10.991259
v -2.205897 4.656960 -12.514933
v -5.252276 4.656960 -12.514933
v -6.751797 4.656960 -12.514933
v -8.251318 4.656960 -12.514933
v -9.750839 4.656960 -12.514933
v -11.250360 4.656960 -12.514933
v -12.810235 4.656960 -12.514933
v -15.445662 4.656960 -12.614933
v 0.376086 4.656960 -12.514933
v -15.445662 4.656960 -10.991259
v -12.810235 4.656960 -10.991259
v -11.250360 4.656960 -10.991259
v -9.750839 4.656960 -10.991259
v -8.251319 4.656960 -10.991259
v -6.751798 4.656960 -10.991259
v -5.252276 4.656960 -10.991259
v -3.752755 4.656960 -10.991259
v -2.205897 4.656960 -10.991259
v 0.376086 4.656960 -10.991259
v -15.445662 1.676581 -14.041826
v -15.445662 0.004208 -14.041826
v -12.810235 0.004208 -14.041826
v 0.376086 1.676581 -14.041826
v 0.376086 0.034064 -14.041826
v -2.205897 0.004208 -14.041826
v -3.752755 0.004208 -14.041826
v -5.252276 0.004208 -14.041826
v -6.751798 0.004208 -14.041826
v -8.251319 0.004208 -14.041826
v -9.750840 0.004208 -14.041826
v -11.250360 0.004208 -14.041826
v -12.810235 1.676581 -14.041826
v -11.250360 1.676581 -14.041826
v -9.750839 1.676581 -14.041826
v -8.251319 1.676581 -14.041826
v -6.751798 1.676581 -14.041826
v -5.252276 1.676581 -14.041826
v -3.752755 1.676581 -14.041826
v -2.205897 1.676581 -14.041826
v -15.445662 3.161266 -14.041826
v 0.376086 3.161266 -14.041826
v -12.810235 3.161266 -14.041826
v -11.250360 3.161266 -14.041826
v -9.750839 3.161266 -14.041826
v -8.251318 3.161266 -14.041826
v -6.751797 3.161266 -14.041826
v -5.252276 3.161266 -14.041826
v -3.752755 3.161266 -14.041826
v -2.205897 3.161266 -14.041826
v -6.751797 4.516960 -14.041826
v -5.252276 4.516960 -14.041826
v -2.205897 4.516960 -14.041826
v -8.251318 4.516960 -14.041826
v -11.250360 4.516960 -14.041826
v -12.810235 4.516960 -14.041826
v -3.752755 4.516960 -14.041826
v -9.750839 4.516960 -14.041826
v -15.445662 4.516960 -14.041826
v 0.376086 4.516960 -14.041826
v -8.251318 9.429384 -14.041826
v -8.251318 9.429384 -12.514933
v -6.751797 9.429384 -14.041826
v -5.252276 9.429384 -14.041826
v -15.445662 -1.293442 -10.076774
v -15.445662 -1.293442 -12.614933
v 0.376086 -1.293442 -10.076774
v 0.376086 -1.293442 -12.614933
v -2.205897 -1.293442 -12.614933
v -3.752755 -1.293442 -12.614933
v -5.252276 -1.293442 -12.614933
v -6.751798 -1.293442 -12.614933
v -8.251319 -1.293442 -12.614933
v -9.750840 -1.293442 -12.614933
v -11.250361 -1.293442 -12.614933
v -12.810235 -1.293442 -12.614933
v -2.205897 -1.293442 -10.991259
v -3.752755 -1.293442 -10.991259
v -12.810235 -1.293442 -10.076774
v -11.250360 -1.293442 -10.076774
v -9.750839 -1.293442 -10.076774
v -8.251318 -1.293442 -10.076774
v -6.751797 -1.293442 -10.076774
v -5.252276 -1.293442 -10.076774
v -3.752755 -1.293442 -10.076774
v -2.205897 -1.293442 -10.076774
v -5.252276 -1.293442 -10.991259
v -6.751798 -1.293442 -10.991259
v -8.251319 -1.293442 -10.991259
v -9.750839 -1.293442 -10.991259
v -11.250360 -1.293442 -10.991259
v -12.810235 -1.293442 -10.991259
v 0.376086 -1.293442 -10.991259
v -15.445662 -1.293442 -10.991259
v -6.751797 -1.293442 -9.159303
v -12.810235 -1.293442 -9.159303
v -3.752755 -1.293442 -9.159303
v -2.205897 -1.293442 -9.159303
v -11.250360 -1.293442 -9.159303
v -9.750839 -1.293442 -9.159303
v -8.251318 -1.293442 -9.159303
v -5.252276 -1.293442 -9.159303
v -15.445662 -1.293442 -14.041826
v -12.810235 -1.293442 -14.041826
v 0.376086 -1.293442 -14.041826
v -2.205897 -1.293442 -14.041826
v -3.752755 -1.293442 -14.041826
v -5.252276 -1.293442 -14.041826
v -6.751798 -1.293442 -14.041826
v -8.251319 -1.293442 -14.041826
v -9.750840 -1.293442 -14.041826
v -11.250360 -1.293442 -14.041826
v -56.849098 -1.293442 -12.020003
v 44.563309 -1.293442 -13.299591
v 44.563309 0.034064 -13.299591
v 44.563309 -1.293442 -12.189476
v 25.176044 -1.293442 9.501614
v 25.176044 0.034064 9.501614
v -56.849098 -1.293442 -13.003935
v -56.849094 0.004208 -13.003935
v -55.315586 -1.293442 -2.565413
v 44.896755 -1.293442 -7.353095
v 43.084480 -1.293442 -1.430888
v -13.928803 0.034064 9.501614
v -13.928802 -1.293442 9.501614
v -26.963753 -1.293442 9.501614
v -26.963753 0.004208 9.501614
v -39.998703 0.004208 9.501614
v -39.998703 -1.293442 9.501614
v -47.839935 -1.293442 6.634354
v -47.839935 0.004208 6.634356
v -53.558285 -1.293442 1.526277
v -0.893853 0.034064 9.501614
v 12.141093 0.034064 9.501614
v 12.141093 -1.293442 9.501614
v -0.893853 -1.293442 9.501614
vn -0.3434 -0.0000 0.9392
vn 0.4037 -0.0000 0.9149
vn -0.9821 -0.0000 0.1883
vn 0.5881 -0.0000 0.8088
vn 0.5524 -0.0000 0.8336
vn 1.0000 -0.0000 -0.0000
vn -1.0000 -0.0000 -0.0000
vn -0.0000 1.0000 -0.0000
vn -0.0000 -1.0000 -0.0000
vn -0.0000 -0.0000 1.0000
vn -0.0000 -0.0000 -1.0000
vn -0.7036 0.7106 -0.0000
vn -0.6889 0.7249 -0.0000
vn 0.6850 0.7285 -0.0000
vn 0.7036 0.7106 -0.0000
vn -0.0190 -0.0105 0.9998
vn 0.9976 -0.0000 -0.0688
vn -0.9922 -0.0000 0.1247
vn -0.9188 -0.0000 0.3946
vn 0.9562 -0.0000 0.2926
vn -0.6662 -0.0000 0.7458
vn -0.0041 1.0000 -0.0025
vn 0.0168 -0.0000 -0.9999
vn -0.0251 -0.0000 -0.9997
vt 0.375000 0.944444
vt 0.375000 0.972222
vt 0.375000 0.777778
vt 0.375000 0.805556
vt 0.375000 0.000000
vt 0.375000 0.107324
vt 0.375000 0.750000
vt 0.375000 0.500000
vt 0.437500 0.500000
vt 0.437500 0.642676
vt 0.375000 0.642676
vt 0.500000 0.500000
vt 0.500000 0.642676
vt 0.437500 0.000000
vt 0.437500 0.107324
vt 0.500000 0.000000
vt 0.500000 0.107324
vt 0.375000 0.250000
vt 0.500000 0.250000
vt 0.500000 0.277778
vt 0.500000 0.472222
vt 0.500000 0.444444
vt 0.291667 0.750000
vt 0.319444 0.750000
vt 0.500000 0.416667
vt 0.437500 0.250000
vt 0.236111 0.750000
vt 0.263889 0.750000
vt 0.500000 0.305556
vt 0.500000 0.333333
vt 0.152778 0.750000
vt 0.180556 0.750000
vt 0.437500 0.944444
vt 0.437500 0.972222
vt 0.500000 0.944444
vt 0.500000 0.972222
vt 0.375000 0.861111
vt 0.437500 0.861111
vt 0.437500 0.916667
vt 0.500000 0.916667
vt 0.500000 0.888889
vt 0.437500 0.833333
vt 0.500000 0.833333
vt 0.500000 0.861111
vt 0.437500 0.805556
vt 0.500000 0.805556
vt 0.437500 0.777778
vt 0.500000 0.777778
vt 0.437500 0.750000
vt 0.500000 0.750000
vt 0.437500 1.000000
vt 0.375000 1.000000
vt 0.500000 1.000000
vt 0.375000 0.833333
vt 0.000000 0.000000
vt 0.125000 0.500000
vt 0.125000 0.642676
vt 0.208333 0.750000
vt 0.375000 0.916667
vt 0.375000 0.888889
vt 0.437500 0.888889
vt 0.347222 0.750000
vt 0.500000 0.361111
vt 0.500000 0.625000
vt 0.500000 0.388889
vt 0.500000 0.625000
vt 0.500000 0.625000
vt 0.375000 0.444444
vt 0.437500 0.444444
vt 0.437500 0.472222
vt 0.375000 0.472222
vt 0.375000 0.416667
vt 0.437500 0.416667
vt 0.375000 0.388889
vt 0.437500 0.388889
vt 0.375000 0.361111
vt 0.437500 0.361111
vt 0.375000 0.333333
vt 0.437500 0.333333
vt 0.375000 0.305556
vt 0.437500 0.305556
vt 0.375000 0.277778
vt 0.437500 0.277778
vt 0.347222 0.642676
vt 0.208333 0.500000
vt 0.236111 0.500000
vt 0.236111 0.642676
vt 0.208333 0.642676
vt 0.263889 0.500000
vt 0.263889 0.642676
vt 0.291667 0.500000
vt 0.291667 0.642676
vt 0.319444 0.500000
vt 0.319444 0.642676
vt 0.347222 0.500000
vt 0.152778 0.642676
vt 0.125000 0.750000
vt 0.180556 0.642676
vt 0.180556 0.500000
vt 0.152778 0.500000
s 0
f 220/1/1 223/2/1 222/2/1 221/1/1
f 7/3/2 210/4/2 209/4/2 8/3/2
f 25/5/3 26/6/3 6/6/3 213/5/3
f 22/3/4 7/3/4 8/3/4 15/3/4
f 21/7/5 22/3/5 15/3/5 215/7/5
f 4/8/6 34/9/6 12/10/6 27/11/6
f 34/9/6 33/12/6 11/13/6 12/10/6
f 1/5/7 29/14/7 10/15/7 28/6/7
f 29/14/7 30/16/7 9/17/7 10/15/7
f 5/18/7 212/18/7 211/18/7 205/18/7
f 4/8/8 27/11/8 24/11/8 23/8/8
f 160/8/9 197/8/9 206/8/9 208/8/9
f 66/19/8 63/20/8 64/20/8 65/19/8
f 67/21/8 61/12/8 62/12/8 68/21/8
f 60/22/8 67/21/8 68/21/8 59/22/8
f 73/1/8 69/2/8 223/2/8 220/1/8
f 33/12/6 34/9/6 116/9/6 134/12/6
f 69/2/8 13/2/8 16/2/8 223/2/8
f 194/23/9 189/24/9 209/24/9 227/23/9
f 95/25/10 84/22/10 60/22/10 55/25/10
f 2/18/7 32/26/7 113/26/7 114/18/7
f 32/26/7 31/19/7 133/19/7 113/26/7
f 145/21/11 149/22/11 59/22/11 68/21/11
f 193/27/9 187/28/9 228/28/9 217/27/9
f 99/29/10 98/30/10 53/30/10 57/29/10
f 31/19/7 101/19/7 151/19/7 133/19/7
f 188/31/9 191/32/9 221/32/9 222/31/9
f 149/22/11 144/25/11 156/25/11 59/22/11
f 50/33/10 52/34/10 13/2/10
f 50/33/10 49/35/10 51/36/10 52/34/10
f 17/37/6 44/38/6 77/38/6 46/37/6
f 48/39/10 47/40/10 49/35/10 50/33/10
f 45/41/12 48/39/12 79/39/12 81/41/12
f 45/41/10 47/40/10 48/39/10
f 1/5/8 28/6/8 26/6/8 25/5/8
f 42/42/10 41/43/10 43/44/10
f 19/4/6 40/45/6 76/45/6 71/4/6
f 40/45/10 39/46/10 41/43/10 42/42/10
f 20/3/10 38/47/10 40/45/10
f 38/47/10 37/48/10 39/46/10 40/45/10
f 3/7/10 36/49/10 38/47/10 20/3/10
f 36/49/10 35/50/10 37/48/10 38/47/10
f 13/2/10 52/34/10 29/51/10 1/52/10
f 52/34/10 51/36/10 30/53/10 29/51/10
f 82/54/8 46/37/8 225/37/8 226/54/8
f 27/11/6 12/10/6 36/49/6 3/7/6
f 12/10/6 11/13/6 35/50/6 36/49/6
f 13/2/8 1/52/8 25/52/8 16/2/8
f 102/55/6 33/55/6 134/55/6 152/55/6
f 158/56/9 186/57/9 6/57/9 205/56/9
f 159/7/9 185/11/9 214/11/9 215/7/9
f 28/6/7 10/15/7 32/26/7 2/18/7
f 10/15/7 9/17/7 31/19/7 32/26/7
f 117/8/8 4/8/8 23/8/8 207/8/8
f 50/33/13 13/2/13 69/2/13 70/33/13
f 73/1/10 70/33/10 69/2/10
f 14/1/6 50/33/6 70/33/6 73/1/6
f 187/28/9 194/23/9 227/23/9 228/28/9
f 44/38/9 42/42/9 83/42/9 77/38/9
f 28/6/8 2/18/8 5/18/8 26/6/8
f 20/3/14 40/45/14 76/45/14 72/3/14
f 71/4/10 72/3/10 76/45/10
f 192/58/9 193/27/9 217/27/9 218/58/9
f 74/59/10 79/39/10 70/33/10 73/1/10
f 75/60/10 78/61/10 79/39/10 74/59/10
f 46/37/10 77/38/10 78/61/10 75/60/10
f 77/38/10 80/44/10 81/41/10 78/61/10
f 71/4/10 76/45/10 83/42/10 82/54/10
f 78/61/10 81/41/10 79/39/10
f 77/38/10 83/42/10 80/44/10
f 42/42/15 43/44/15 80/44/15 83/42/15
f 27/11/8 3/7/8 21/7/8 24/11/8
f 40/45/8 42/42/8 83/42/8 76/45/8
f 43/44/8 45/41/8 81/41/8 80/44/8
f 48/39/8 50/33/8 70/33/8 79/39/8
f 191/32/9 192/58/9 218/58/9 221/32/9
f 82/54/10 83/42/10 77/38/10 46/37/10
f 190/62/9 178/62/9 15/62/9 8/62/9
f 18/54/6 42/42/6 83/42/6 82/54/6
f 98/30/10 97/63/10 154/63/10 53/30/10
f 88/64/10 89/64/10 108/64/10 107/64/10
f 93/55/6 33/55/6 102/55/6 112/55/6
f 152/12/11 145/21/11 68/21/11 62/12/11
f 178/62/9 159/7/9 215/7/9 15/62/9
f 97/63/10 96/65/10 56/65/10 154/63/10
f 89/64/10 90/64/10 109/64/10 108/64/10
f 90/64/10 91/64/10 110/64/10 109/64/10
f 34/9/6 4/8/6 117/8/6 116/9/6
f 37/48/8 35/50/8 93/64/8 92/64/8
f 39/46/8 37/48/8 92/64/8 91/64/8
f 41/43/8 39/46/8 91/64/8 90/64/8
f 43/44/8 41/43/8 90/64/8 89/64/8
f 45/41/8 43/44/8 89/64/8 88/64/8
f 47/40/8 45/41/8 88/64/8 87/64/8
f 49/35/8 47/40/8 87/64/8 86/66/8
f 51/36/8 49/35/8 86/66/8 85/64/8
f 30/53/8 51/36/8 85/64/8 9/67/8
f 103/67/8 104/64/8 100/20/8 101/19/8
f 104/64/8 105/66/8 99/29/8 100/20/8
f 105/66/8 106/64/8 98/30/8 99/29/8
f 106/64/8 107/64/8 97/63/8 98/30/8
f 107/64/8 108/64/8 96/65/8 97/63/8
f 108/64/8 109/64/8 95/25/8 96/65/8
f 109/64/8 110/64/8 84/22/8 95/25/8
f 110/64/8 111/64/8 94/21/8 84/22/8
f 111/64/8 112/64/8 102/12/8 94/21/8
f 87/64/10 88/64/10 107/64/10 106/64/10
f 2/18/8 114/18/8 212/18/8 5/18/8
f 31/19/7 9/17/7 103/17/7 101/19/7
f 86/66/10 87/64/10 106/64/10 105/66/10
f 148/20/11 151/19/11 65/19/11 64/20/11
f 85/64/10 86/66/10 105/66/10 104/64/10
f 96/65/10 95/25/10 55/25/10 56/65/10
f 92/64/10 93/64/10 112/64/10 111/64/10
f 91/64/10 92/64/10 111/64/10 110/64/10
f 189/24/9 190/62/9 8/62/9 209/24/9
f 9/67/10 85/64/10 104/64/10 103/67/10
f 119/68/11 131/69/11 132/70/11 118/71/11
f 131/69/11 141/22/11 142/21/11 132/70/11
f 120/72/11 130/73/11 131/69/11 119/68/11
f 130/73/11 140/25/11 141/22/11 131/69/11
f 121/74/11 129/75/11 130/73/11 120/72/11
f 129/75/11 139/65/11 140/25/11 130/73/11
f 122/76/11 128/77/11 129/75/11 121/74/11
f 128/77/11 138/63/11 139/65/11 129/75/11
f 123/78/11 127/79/11 128/77/11 122/76/11
f 127/79/11 137/30/11 138/63/11 128/77/11
f 124/80/11 126/81/11 127/79/11 123/78/11
f 126/81/11 136/29/11 137/30/11 127/79/11
f 115/82/11 125/83/11 126/81/11 124/80/11
f 125/83/11 135/20/11 136/29/11 126/81/11
f 114/18/11 113/26/11 125/83/11 115/82/11
f 113/26/11 133/19/11 135/20/11 125/83/11
f 118/71/11 132/70/11 116/9/11 117/8/11
f 132/70/11 142/21/11 134/12/11 116/9/11
f 142/21/11 141/22/11 149/22/11 145/21/11
f 135/20/11 133/19/11 151/19/11 148/20/11
f 134/12/11 142/21/11 145/21/11 152/12/11
f 139/65/11 138/63/11 146/63/11 143/65/11
f 136/29/11 135/20/11 148/20/11 147/29/11
f 138/63/11 137/30/11 150/30/11 146/63/11
f 141/22/11 140/25/11 144/25/11 149/22/11
f 137/30/11 136/29/11 147/29/11 150/30/11
f 140/25/11 139/65/11 143/65/11 144/25/11
f 63/20/8 57/29/8 58/29/8 64/20/8
f 55/25/8 60/22/8 59/22/8 156/25/8
f 57/29/8 53/30/8 54/30/8 58/29/8
f 53/30/8 154/63/8 153/63/8 54/30/8
f 154/63/8 56/65/8 155/65/8 153/63/8
f 56/65/8 55/25/8 156/25/8 155/65/8
f 151/19/7 101/19/7 66/19/7 65/19/7
f 144/25/11 143/65/11 155/65/11 156/25/11
f 100/20/10 99/29/10 57/29/10 63/20/10
f 143/65/11 146/63/11 153/63/11 155/65/11
f 101/19/16 100/20/16 63/20/16 66/19/16
f 146/63/11 150/30/11 54/30/11 153/63/11
f 94/21/10 102/12/10 61/12/10 67/21/10
f 150/30/11 147/29/11 58/29/11 54/30/11
f 84/22/10 94/21/10 67/21/10 60/22/10
f 102/55/6 152/55/6 62/55/6 61/55/6
f 147/29/11 148/20/11 64/20/11 58/29/11
f 169/84/9 185/11/9 159/7/9 178/62/9
f 166/85/9 165/86/9 181/87/9 182/88/9
f 165/86/9 164/89/9 180/90/9 181/87/9
f 164/89/9 163/91/9 179/92/9 180/90/9
f 163/91/9 162/93/9 170/94/9 179/92/9
f 162/93/9 161/95/9 169/84/9 170/94/9
f 186/57/9 184/96/9 171/31/9 157/97/9
f 184/96/9 183/98/9 172/32/9 171/31/9
f 183/98/9 182/88/9 173/58/9 172/32/9
f 182/88/9 181/87/9 174/27/9 173/58/9
f 181/87/9 180/90/9 175/28/9 174/27/9
f 180/90/9 179/92/9 176/23/9 175/28/9
f 179/92/9 170/94/9 177/24/9 176/23/9
f 170/94/9 169/84/9 178/62/9 177/24/9
f 167/99/9 168/100/9 196/100/9 204/99/9
f 168/100/9 158/56/9 195/56/9 196/100/9
f 166/85/9 167/99/9 204/99/9 203/85/9
f 165/86/9 166/85/9 203/85/9 202/86/9
f 164/89/9 165/86/9 202/86/9 201/89/9
f 174/27/9 175/28/9 187/28/9 193/27/9
f 161/95/9 160/8/9 185/11/9 169/84/9
f 158/56/9 168/100/9 184/96/9 186/57/9
f 163/91/9 164/89/9 201/89/9 200/91/9
f 168/100/9 167/99/9 183/98/9 184/96/9
f 167/99/9 166/85/9 182/88/9 183/98/9
f 171/31/9 172/32/9 191/32/9 188/31/9
f 173/58/9 174/27/9 193/27/9 192/58/9
f 177/24/9 178/62/9 190/62/9 189/24/9
f 176/23/9 177/24/9 189/24/9 194/23/9
f 172/32/9 173/58/9 192/58/9 191/32/9
f 175/28/9 176/23/9 194/23/9 187/28/9
f 162/93/9 163/91/9 200/91/9 199/93/9
f 161/95/9 162/93/9 199/93/9 198/95/9
f 160/8/9 161/95/9 198/95/9 197/8/9
f 23/8/17 24/11/17 214/11/17 208/8/17
f 26/6/18 5/18/18 205/18/18 6/6/18
f 207/8/6 23/8/6 208/8/6 206/8/6
f 210/4/10 226/54/10 227/54/10 209/4/10
f 16/2/19 25/52/19 213/52/19 224/2/19
f 24/11/20 21/7/20 215/7/20 214/11/20
f 216/60/10 219/59/10 218/59/10 217/60/10
f 225/37/10 216/60/10 217/60/10 228/37/10
f 219/59/10 220/1/10 221/1/10 218/59/10
f 223/2/21 16/2/21 224/2/21 222/2/21
f 226/54/10 225/37/10 228/37/10 227/54/10
f 3/7/8 20/3/8 22/3/8 21/7/8
f 157/97/9 171/31/9 224/31/9 213/97/9
f 46/37/8 75/60/8 216/60/8 225/37/8
f 72/3/8 71/4/8 210/4/8 7/3/8
f 71/4/8 82/54/8 226/54/8 210/4/8
f 20/3/8 72/3/8 7/3/8 22/3/8
f 195/56/9 158/56/9 205/56/9 211/56/9
f 74/59/8 73/1/8 220/1/8 219/59/8
f 75/60/22 74/59/22 219/59/22 216/60/22
f 186/57/9 157/97/9 213/97/9 6/57/9
f 185/11/9 160/8/9 208/8/9 214/11/9
f 171/31/9 188/31/9 222/31/9 224/31/9
f 206/8/23 197/8/23 117/8/23 207/8/23
f 118/71/11 117/8/11 197/8/11 198/95/11
f 119/68/11 118/71/11 198/95/11 199/93/11
f 120/72/11 119/68/11 199/93/11 200/91/11
f 121/74/11 120/72/11 200/91/11 201/89/11
f 122/76/11 121/74/11 201/89/11 202/86/11
f 123/78/11 122/76/11 202/86/11 203/85/11
f 124/80/11 123/78/11 203/85/11 204/99/11
f 115/82/11 124/80/11 204/99/11 196/100/11
f 114/18/11 115/82/11 196/100/11 195/56/11
f 211/56/24 212/18/24 114/18/24 195/56/24
