# Blender 4.1.0
# www.blender.org
o Cube.26662
v 0.806720 -0.093956 -0.536001
v 0.806720 0.019485 -0.536001
v 0.806720 -0.093956 0.323160
v 0.806720 0.019485 0.323160
v 0.693280 -0.093956 -0.536001
v 0.693280 0.019485 -0.536001
v 0.693280 -0.093956 0.323160
v 0.693280 0.019485 0.323160
v 0.806720 -0.174472 -0.211957
v 0.806720 -0.094257 -0.131742
v 0.693280 -0.174472 -0.211957
v 0.693280 -0.094257 -0.131742
v 0.806720 -0.094068 -0.292361
v 0.693280 -0.094068 -0.292361
v 0.806720 -0.409952 0.183953
v 0.693280 -0.490167 0.103738
v 0.806720 -0.490167 0.103738
v 0.693280 -0.409952 0.183953
v 0.693280 -0.569505 0.183076
v 0.806720 -0.569505 0.183076
v -0.748855 0.081247 -0.616000
v -0.748855 0.111247 -0.616000
v -0.748855 0.111247 0.184000
v 0.750855 0.081247 -0.616000
v 0.750855 0.111247 -0.616000
v 0.750855 0.111247 0.184000
v 0.750000 0.021247 -0.516001
v 0.750000 0.081247 -0.516001
v 0.750000 0.021247 -0.456001
v 0.750000 0.081247 -0.456001
v -0.750000 0.021247 -0.516001
v -0.750000 0.081247 -0.516001
v -0.750000 0.021247 -0.456001
v -0.750000 0.081247 -0.456001
v 0.750000 0.021247 0.024000
v 0.750000 0.081247 0.024000
v 0.750000 0.021247 0.084000
v 0.750000 0.081247 0.084000
v -0.750000 0.021247 0.024000
v -0.750000 0.081247 0.024000
v -0.750000 0.021247 0.084000
v -0.750000 0.081247 0.084000
v -0.748855 0.081247 0.184000
v 0.750855 0.081247 0.184000
vn 1.0000 -0.0000 -0.0000
vn -1.0000 -0.0000 -0.0000
vn -0.0000 -0.0000 -1.0000
vn -0.0000 1.0000 -0.0000
vn -0.0000 0.7071 0.7071
vn -0.0000 -0.7071 -0.7071
vn -0.0000 1.0000 0.0012
vn -0.0000 -1.0000 -0.0000
vn -0.0000 -0.0000 1.0000
vn -0.0000 -0.0055 1.0000
vt 0.170229 0.937151
vt 0.170229 0.999797
vt 0.000201 0.999798
vt 0.000201 0.937151
vt 0.000201 0.874098
vt 0.000201 0.811452
vt 0.170229 0.811452
vt 0.170229 0.874098
vt 0.171049 0.999679
vt 0.110293 0.999679
vt 0.110293 0.938923
vt 0.171049 0.938923
vt 0.000201 0.936948
vt 0.000201 0.874301
vt 0.170229 0.874301
vt 0.170229 0.936948
vt 0.707587 0.685921
vt 0.560296 0.682414
vt 0.595661 0.197828
vt 0.707831 0.203110
vt 0.363990 0.999986
vt 0.363990 0.938704
vt 0.652908 0.938704
vt 0.652908 0.999986
vt 0.368778 0.999972
vt 0.368778 0.937892
vt 0.661461 0.937892
vt 0.661461 0.999972
vt 0.726492 0.938704
vt 0.726492 0.999986
vt 0.291381 0.999986
vt 0.291381 0.938704
vt 0.369767 0.937836
vt 0.369767 0.875756
vt 0.662449 0.875756
vt 0.662449 0.937836
vt 0.589175 0.000215
vt 0.753322 0.019658
vt 0.736004 0.999972
vt 0.295224 0.937836
vt 0.736004 0.937836
vt 0.295224 0.999972
vt 0.537629 0.999925
vt 0.537629 0.000075
vt 0.000075 0.000075
vt 0.000075 0.999925
vt 0.557787 0.999925
vt 0.557787 0.000075
vt -0.149947 0.933024
vt -0.197859 0.933024
vt -0.197859 0.899635
vt -0.149947 0.899635
vt -0.149832 0.899635
vt -0.101920 0.899635
vt -0.101920 0.933024
vt -0.149832 0.933024
vt -0.197859 0.999960
vt -0.197859 0.966572
vt 0.999943 0.966572
vt 0.999943 0.999960
vt -0.197859 0.933104
vt 0.999943 0.933104
vt 0.999943 0.966492
vt -0.197859 0.966492
s 0
f 1/1/1 2/2/1 4/3/1 3/4/1
f 7/5/2 8/6/2 6/7/2 5/8/2
f 5/9/3 6/10/3 2/11/3 1/12/3
f 8/13/4 4/14/4 2/15/4 6/16/4
f 18/17/5 15/18/5 10/19/5 12/20/5
f 17/21/6 16/22/6 11/23/6 9/24/6
f 16/25/2 18/26/2 12/27/2 11/28/2
f 9/24/6 11/23/6 14/29/6 13/30/6
f 20/31/6 19/32/6 16/22/6 17/21/6
f 9/33/1 10/34/1 15/35/1 17/36/1
f 10/19/7 13/37/7 14/38/7 12/20/7
f 11/28/2 12/27/2 14/39/2
f 9/33/1 13/40/1 10/34/1
f 17/36/1 15/35/1 20/41/1
f 16/25/2 19/42/2 18/26/2
f 25/43/4 22/44/4 23/45/4 26/46/4
f 24/47/3 21/48/3 22/44/3 25/43/3
f 27/49/1 28/50/1 30/51/1 29/52/1
f 33/53/2 34/54/2 32/55/2 31/56/2
f 31/57/3 32/58/3 28/59/3 27/60/3
f 34/61/4 30/62/4 28/63/4 32/64/4
f 35/49/1 36/50/1 38/51/1 37/52/1
f 41/53/2 42/54/2 40/55/2 39/56/2
f 39/57/3 40/58/3 36/59/3 35/60/3
f 42/61/4 38/62/4 36/63/4 40/64/4
f 3/4/8 7/5/8 5/8/8 1/12/8
f 3/4/9 4/14/9 8/6/9 7/5/9
f 21/48/8 24/47/8 44/47/8 43/48/8
f 24/47/1 25/43/1 26/46/1 44/47/1
f 26/46/9 23/45/9 43/48/9 44/47/9
f 21/48/2 43/48/2 23/45/2 22/44/2
f 37/52/9 38/62/9 42/54/9 41/53/9
f 37/52/8 41/53/8 39/56/8 35/60/8
f 29/52/9 30/62/9 34/54/9 33/53/9
f 29/52/8 33/53/8 31/56/8 27/60/8
f 15/35/10 18/26/10 19/32/10 20/41/10
