# Blender 4.1.0
# www.blender.org
o Top_Slot_2_Damaged
v 0.700000 -0.040000 -0.490000
v 0.700000 0.110000 -0.490000
v 0.700000 -0.040000 -0.340000
v 0.700000 0.110000 -0.340000
v -0.800000 -0.040000 -0.490000
v -0.800000 0.110000 -0.490000
v -0.800000 -0.040000 -0.340000
v -0.800000 0.110000 -0.340000
v -0.299893 0.409996 -0.339999
v -0.299893 0.559996 -0.339999
v -0.299893 0.409996 -0.189999
v -0.549893 0.409996 -0.339999
v -0.549893 0.559996 -0.339999
v -0.549893 0.409996 -0.189999
v -0.549893 0.559996 -0.189999
v -0.299893 0.559996 -0.189999
v -0.700337 0.259923 -0.339999
v -0.700337 0.409923 -0.339999
v -0.700337 0.259923 -0.189999
v -0.700337 0.409923 -0.189999
v -0.200337 0.259923 -0.340000
v -0.200337 0.409923 -0.340000
v -0.200337 0.259923 -0.190000
v -0.200337 0.409923 -0.190000
v -0.049999 0.110000 -0.339999
v -0.049999 0.260000 -0.339999
v -0.049999 0.110000 -0.189999
v -0.299999 0.110000 -0.339999
v -0.299999 0.260000 -0.339999
v -0.299999 0.110000 -0.189999
v -0.299999 0.260000 -0.189999
v -0.049999 0.260000 -0.189999
v -0.544889 0.110000 -0.339999
v -0.544889 0.260000 -0.339999
v -0.544889 0.110000 -0.189999
v -0.794889 0.110000 -0.339999
v -0.794889 0.260000 -0.339999
v -0.794889 0.110000 -0.189999
v -0.794889 0.260000 -0.189999
v -0.544889 0.260000 -0.189999
v 0.800000 -0.040000 -0.340000
v 0.800001 0.110000 -0.340000
v 0.800001 -0.040000 -0.190000
v 0.800001 0.110000 -0.190000
v -0.700073 -0.040000 -0.339999
v -0.700073 0.110000 -0.339999
v -0.700073 -0.040000 -0.189998
v -0.700073 0.110000 -0.189998
v 0.052573 0.410000 -0.489999
v 0.052573 0.560000 -0.489999
v 0.202573 0.410000 -0.340000
v 0.202573 0.560000 -0.340000
v 0.802573 0.410000 -0.490000
v 0.802573 0.560000 -0.490000
v 0.802573 0.410000 -0.340000
v 0.802573 0.560000 -0.340000
v 0.200001 0.110000 -0.339999
v 0.200001 0.260000 -0.339999
v 0.200001 0.110000 -0.189999
v 0.200001 0.260000 -0.189999
v 0.700001 0.110000 -0.340000
v 0.700001 0.260000 -0.340000
v 0.700001 0.110000 -0.190000
v 0.700001 0.260000 -0.190000
v 0.200001 0.260000 -0.339999
v 0.200001 0.410000 -0.339999
v 0.200001 0.260000 -0.189999
v 0.200001 0.410000 -0.189999
v 0.551803 0.260000 -0.340000
v 0.551803 0.410000 -0.340000
v 0.551803 0.260000 -0.190000
v 0.551803 0.410000 -0.190000
v 0.054755 0.260001 -0.489999
v 0.054755 0.410000 -0.489999
v 0.204755 0.260001 -0.339999
v 0.204755 0.410000 -0.339999
v 0.704755 0.260001 -0.489999
v 0.704755 0.410001 -0.489999
v 0.704755 0.260001 -0.339999
v 0.704755 0.410001 -0.339999
v -0.794999 0.410000 -0.340000
v -0.794999 0.260000 -0.340000
v -0.794999 0.410000 -0.490000
v -0.794999 0.260000 -0.490000
v -0.194999 0.410000 -0.339999
v -0.194999 0.260000 -0.339999
v -0.044999 0.410000 -0.489999
v -0.044999 0.260000 -0.489999
v -0.700312 0.260000 -0.339999
v -0.700312 0.110000 -0.339999
v -0.700312 0.260000 -0.489999
v -0.700312 0.110000 -0.489999
v 0.799762 0.260000 -0.340000
v 0.799762 0.110000 -0.340000
v 0.799762 0.260000 -0.490000
v 0.799762 0.110000 -0.490000
vn -1.0000 -0.0000 -0.0000
vn -0.0000 -0.0000 1.0000
vn -0.0000 -1.0000 -0.0000
vn 1.0000 -0.0000 -0.0000
vn -0.0000 1.0000 -0.0000
vn -0.0000 -0.0000 -1.0000
vn -0.7071 -0.0000 0.7071
vn -0.7071 -0.0000 -0.7071
vt 0.375000 0.500000
vt 0.625000 0.500000
vt 0.625000 0.750000
vt 0.375000 0.750000
vt 0.375000 0.250000
vt 0.625000 0.250000
vt 0.375000 0.000000
vt 0.625000 0.000000
vt 0.239730 0.749425
vt 0.489768 0.749425
vt 0.489768 0.624051
vt 0.239730 0.624051
vt 0.489767 0.624051
vt 0.239730 0.624051
vt 0.239730 0.749425
vt 0.489768 0.749425
vt 0.090439 0.499961
vt 0.341831 0.499961
vt 0.341831 0.623570
vt 0.090439 0.623570
vt 0.589495 0.499961
vt 0.342182 0.499961
vt 0.342182 0.623570
vt 0.589495 0.623570
vt 0.741183 0.500093
vt 0.491146 0.500093
vt 0.491146 0.374718
vt 0.741183 0.374718
vt 0.235157 0.497377
vt -0.004048 0.497377
vt -0.004048 0.377434
vt 0.235157 0.377434
vt 1.587970 0.250192
vt 1.439780 0.250192
vt 1.439780 0.373596
vt 1.587970 0.373596
vt 1.588863 0.250173
vt 0.089363 0.250173
vt 0.089363 0.375067
vt 1.588863 0.375067
vt 1.588704 0.249997
vt 0.090212 0.249997
vt 0.090212 0.374099
vt 1.588704 0.374099
vt 0.090301 0.374315
vt 0.239715 0.374315
vt 0.239715 0.249892
vt 0.090301 0.249892
vt 0.090241 0.750282
vt 0.090241 0.874574
vt 0.339974 0.874574
vt 0.339974 0.750283
vt 0.837654 0.750109
vt 0.837654 0.874577
vt 0.090315 0.874577
vt 0.239782 0.750109
vt 0.837157 0.750412
vt 0.712157 0.750412
vt 0.712157 0.875412
vt 0.837157 0.875412
vt 0.239782 0.874577
vt 0.988815 0.373883
vt 1.240951 0.373883
vt 1.240951 0.499775
vt 0.988815 0.499775
vt 1.489349 0.373883
vt 1.241304 0.373883
vt 1.241304 0.499775
vt 1.489349 0.499775
vt -0.151906 0.499986
vt 0.096181 0.499986
vt 0.096181 0.623856
vt -0.151906 0.623856
vt 0.340590 0.499986
vt 0.096529 0.499986
vt 0.096529 0.623856
vt 0.340590 0.623856
vt 0.340590 0.623856
vt 0.340590 0.499986
vt -0.008940 0.499986
vt -0.008940 0.623856
vt 0.876462 0.624588
vt 0.876462 0.749740
vt 0.375500 0.749740
vt 0.375500 0.624588
vt 0.622677 0.498866
vt 0.872677 0.498866
vt 0.872677 0.748866
vt 0.622677 0.748866
vt 0.241032 0.749740
vt 0.241032 0.624588
vt 0.453572 0.624588
vt 0.453572 0.749740
vt 0.866233 0.628080
vt 0.866233 0.748151
vt 0.241421 0.748151
vt 0.385608 0.628080
vt -0.406973 -0.000927
vt -0.406973 0.123541
vt 0.190898 0.123541
vt 0.190898 -0.000927
vt -0.406476 -0.000625
vt -0.281476 -0.000625
vt -0.281476 0.124375
vt -0.406476 0.124375
vt 0.340439 -0.000754
vt 0.340439 0.123538
vt 0.090707 0.123538
vt 0.090706 -0.000754
vt 0.340366 0.123541
vt -0.523684 0.876259
vt -0.374269 0.876259
vt -0.374269 1.000682
vt -0.523684 1.000682
vt 0.974720 1.000577
vt -0.523772 1.000577
vt -0.523772 0.876475
vt 0.974720 0.876475
vt 0.973986 1.000382
vt 0.825795 1.000382
vt 0.825795 0.876978
vt 0.973986 0.876978
vt 0.974878 1.000401
vt -0.524622 1.000401
vt -0.524622 0.875507
vt 0.974878 0.875507
s 0
f 2/1/1 1/2/1 3/3/1 4/4/1
f 6/5/2 5/6/2 1/2/2 2/1/2
f 8/7/3 6/5/3 2/1/3 4/4/3
f 8/7/4 7/8/4 5/6/4 6/5/4
f 5/6/5 7/8/5 3/3/5 1/2/5
f 7/8/6 8/7/6 4/4/6 3/3/6
f 10/9/1 9/10/1 11/11/1 16/12/1
f 15/10/4 14/9/4 12/12/4 13/11/4
f 16/10/6 11/11/6 14/12/6 15/9/6
f 13/13/3 10/14/3 16/15/3 15/16/3
f 20/17/4 19/18/4 17/19/4 18/20/4
f 22/21/1 21/22/1 23/23/1 24/24/1
f 22/24/3 24/21/3 20/17/3 18/20/3
f 24/24/6 23/21/6 19/17/6 20/20/6
f 26/25/1 25/26/1 27/27/1 32/28/1
f 31/26/4 30/25/4 28/28/4 29/27/4
f 32/26/6 27/27/6 30/28/6 31/25/6
f 29/27/3 26/28/3 32/25/3 31/26/3
f 34/29/1 33/30/1 35/31/1 40/32/1
f 39/30/4 38/29/4 36/32/4 37/31/4
f 40/30/6 35/31/6 38/32/6 39/29/6
f 37/31/3 34/32/3 40/29/3 39/30/3
f 42/33/1 41/34/1 43/35/1 44/36/1
f 44/37/3 48/38/3 46/39/3 42/40/3
f 43/41/6 47/42/6 48/43/6 44/44/6
f 48/45/4 47/46/4 45/47/4 46/48/4
f 50/49/7 49/50/7 51/51/7 52/52/7
f 56/53/5 54/54/5 50/55/5 52/56/5
f 56/57/4 55/58/4 53/59/4 54/60/4
f 55/53/2 56/54/2 52/61/2 51/56/2
f 60/62/4 59/63/4 57/64/4 58/65/4
f 62/66/1 61/67/1 63/68/1 64/69/1
f 62/69/3 64/66/3 60/62/3 58/65/3
f 64/69/6 63/66/6 59/62/6 60/65/6
f 68/70/4 67/71/4 65/72/4 66/73/4
f 70/74/1 69/75/1 71/76/1 72/77/1
f 70/78/3 72/79/3 68/80/3 66/81/3
f 72/78/6 71/79/6 67/80/6 68/81/6
f 79/82/2 80/83/2 76/84/2 75/85/2
f 80/86/4 79/87/4 77/88/4 78/89/4
f 74/90/7 73/91/7 75/92/7 76/93/7
f 80/94/5 78/95/5 74/96/5 76/97/5
f 82/98/6 81/99/6 85/100/6 86/101/6
f 81/102/4 82/103/4 84/104/4 83/105/4
f 87/106/8 88/107/8 86/108/8 85/109/8
f 81/98/3 83/99/3 87/110/3 85/101/3
f 89/111/4 90/112/4 92/113/4 91/114/4
f 94/115/6 90/116/6 89/117/6 93/118/6
f 95/119/1 96/120/1 94/121/1 93/122/1
f 93/123/3 89/124/3 91/125/3 95/126/3
