# Blender 4.1.1
# www.blender.org
mtllib Top Slot _ 0 Broken.mtl
o Top_Slot_3_Broken
v -0.800000 -0.040000 0.340000
v -0.800000 0.110000 0.340000
v -0.800000 -0.040000 0.190000
v -0.800000 0.110000 0.190000
v 0.700074 -0.040000 0.339999
v 0.700074 0.110000 0.339999
v 0.700074 -0.040000 0.189999
v 0.700074 0.110000 0.189999
v -0.200000 0.110000 0.340000
v -0.200000 0.260000 0.340000
v -0.200000 0.110000 0.190000
v -0.200000 0.260000 0.190000
v -0.700000 0.110000 0.340000
v -0.700000 0.260000 0.340000
v -0.700000 0.110000 0.190000
v -0.700000 0.260000 0.190000
v 0.050000 0.110000 0.339999
v 0.050000 0.260000 0.339999
v 0.050000 0.110000 0.189999
v 0.300000 0.110000 0.339999
v 0.300000 0.260000 0.339999
v 0.300000 0.110000 0.189999
v 0.300000 0.260000 0.189999
v 0.050000 0.260000 0.189999
v 0.544890 0.110000 0.339999
v 0.544890 0.260000 0.339999
v 0.544890 0.110000 0.189999
v 0.794890 0.110000 0.339999
v 0.794890 0.260000 0.339999
v 0.794890 0.110000 0.189999
v 0.794890 0.260000 0.189999
v 0.544890 0.260000 0.189999
v -0.550280 0.259947 0.339999
v -0.550281 0.409947 0.339999
v -0.550281 0.259947 0.189999
v -0.300280 0.259947 0.339999
v -0.300281 0.409947 0.339999
v -0.300281 0.259947 0.189999
v -0.300281 0.409947 0.189999
v -0.550281 0.409947 0.189999
v 0.700312 0.259999 0.339999
v 0.700312 0.109999 0.339999
v 0.700312 0.259999 0.489999
v 0.700312 0.109999 0.489999
v -0.799762 0.259999 0.340000
v -0.799762 0.109999 0.340000
v -0.799762 0.259999 0.490000
v -0.799762 0.109999 0.490000
v -0.299737 0.259999 0.339999
v -0.049725 0.259999 0.339999
v -0.299737 0.259999 0.490000
v -0.049725 0.259999 0.489999
v -0.049725 0.109999 0.339999
v -0.299737 0.109999 0.340000
v -0.299737 0.109999 0.490000
v -0.049725 0.109999 0.489999
v -0.703971 -0.040000 0.490000
v -0.703971 0.110000 0.490000
v -0.703971 -0.040000 0.340000
v -0.703971 0.110000 0.340000
v 0.796103 -0.040000 0.489999
v 0.796103 0.110000 0.489999
v 0.796103 -0.040000 0.339999
v 0.796103 0.110000 0.339999
vn 1.0000 -0.0000 -0.0000
vn -0.0000 -1.0000 -0.0000
vn -0.0000 -0.0000 1.0000
vn -1.0000 -0.0000 -0.0000
vt 1.587970 0.250737
vt 1.439780 0.250737
vt 1.439780 0.374141
vt 1.587970 0.374141
vt 1.588863 0.249266
vt 0.089363 0.249266
vt 0.089363 0.374160
vt 1.588863 0.374160
vt 1.588704 0.250234
vt 0.090212 0.250233
vt 0.090212 0.374335
vt 1.588704 0.374335
vt 0.090301 0.374441
vt 0.239715 0.374441
vt 0.239715 0.250017
vt 0.090301 0.250017
vt 0.988815 0.373883
vt 1.240951 0.373883
vt 1.240951 0.499775
vt 0.988815 0.499775
vt 1.489349 0.373883
vt 1.241304 0.373883
vt 1.241304 0.499775
vt 1.489349 0.499775
vt 0.491146 0.500093
vt 0.741183 0.500093
vt 0.741183 0.374718
vt 0.491146 0.374718
vt -0.004048 0.497377
vt 0.235157 0.497377
vt 0.235157 0.377434
vt -0.004048 0.377434
vt 0.094407 0.622330
vt 0.336773 0.622330
vt 0.336773 0.500802
vt 0.094407 0.500802
vt 0.490436 1.000682
vt 0.737859 1.000682
vt 0.737859 0.876258
vt 0.490436 0.876258
vt 0.973986 1.000382
vt 0.825795 1.000382
vt 0.825795 0.876978
vt 0.973986 0.876978
vt 0.490555 1.000577
vt 1.225474 1.000577
vt 1.225474 0.876475
vt 0.490555 0.876475
vt 0.989670 1.000577
vt 0.490055 1.000577
vt 0.490055 0.876475
vt 0.989670 0.876475
vt 1.225128 0.875507
vt 0.490744 0.875507
vt 0.490744 1.000401
vt 1.225128 1.000401
vt 0.493022 0.875655
vt 0.739519 0.875655
vt 0.739519 0.999734
vt 0.493022 0.999734
vt -0.024275 0.875960
vt -0.024573 1.001092
vt 0.225474 1.000062
vt 0.225474 0.875960
vt 0.989413 1.000401
vt 0.490537 1.000401
vt 0.490537 0.875507
vt 0.989413 0.875507
vt 1.587970 0.500079
vt 1.439780 0.500079
vt 1.439780 0.623484
vt 1.587970 0.623484
vt 1.588863 0.498608
vt 0.089363 0.498608
vt 0.089363 0.623502
vt 1.588863 0.623502
vt 1.588704 0.499576
vt 0.090212 0.499576
vt 0.090212 0.623678
vt 1.588704 0.623678
vt 0.090301 0.623784
vt 0.239715 0.623784
vt 0.239715 0.499360
vt 0.090301 0.499360
s 0
f 2/1/1 1/2/1 3/3/1 4/4/1
f 4/5/2 8/6/2 6/7/2 2/8/2
f 3/9/3 7/10/3 8/11/3 4/12/3
f 8/13/4 7/14/4 5/15/4 6/16/4
f 12/17/4 11/18/4 9/19/4 10/20/4
f 14/21/1 13/22/1 15/23/1 16/24/1
f 14/24/2 16/21/2 12/17/2 10/20/2
f 16/24/3 15/21/3 11/17/3 12/20/3
f 18/25/1 17/26/1 19/27/1 24/28/1
f 23/26/4 22/25/4 20/28/4 21/27/4
f 24/26/3 19/27/3 22/28/3 23/25/3
f 21/27/2 18/28/2 24/25/2 23/26/2
f 26/29/1 25/30/1 27/31/1 32/32/1
f 31/30/4 30/29/4 28/32/4 29/31/4
f 32/30/3 27/31/3 30/32/3 31/29/3
f 29/31/2 26/32/2 32/29/2 31/30/2
f 34/33/1 33/34/1 35/35/1 40/36/1
f 39/34/4 38/33/4 36/36/4 37/35/4
f 40/34/3 35/35/3 38/36/3 39/33/3
f 37/35/2 34/36/2 40/33/2 39/34/2
f 41/37/4 42/38/4 44/39/4 43/40/4
f 47/41/1 48/42/1 46/43/1 45/44/1
f 41/45/3 50/46/3 53/47/3 42/48/3
f 46/49/3 54/50/3 49/51/3 45/52/3
f 50/53/2 41/54/2 43/55/2 52/56/2
f 51/57/4 49/58/4 54/59/4 55/60/4
f 52/61/1 56/62/1 53/63/1 50/64/1
f 45/65/2 49/66/2 51/67/2 47/68/2
f 58/69/1 57/70/1 59/71/1 60/72/1
f 60/73/2 64/74/2 62/75/2 58/76/2
f 59/77/3 63/78/3 64/79/3 60/80/3
f 64/81/4 63/82/4 61/83/4 62/84/4
