# Blender 4.1.0
# www.blender.org
mtllib Top Slot _ 2 Damaged.mtl
o Top_Slot_1_Chipped
v 0.200000 0.110000 -0.340000
v 0.200000 0.260000 -0.340000
v 0.200000 0.110000 -0.190000
v 0.200000 0.260000 -0.190000
v 0.800000 -0.040000 -0.340000
v 0.800000 0.110000 -0.340000
v 0.800000 -0.040000 -0.190000
v 0.800000 0.110000 -0.190000
v 0.700000 0.110000 -0.340000
v 0.700000 0.260000 -0.340000
v 0.700000 0.110000 -0.190000
v 0.700000 0.260000 -0.190000
v 0.304912 0.710000 -0.490000
v 0.304912 0.860000 -0.490000
v 0.304912 0.710000 -0.340000
v 0.304913 0.860000 -0.340000
v 0.804912 0.710001 -0.490000
v 0.804912 0.860000 -0.490000
v 0.804912 0.710001 -0.340000
v 0.804913 0.860000 -0.340000
v -0.044999 0.410001 -0.490000
v -0.044999 0.560001 -0.490000
v -0.194999 0.410001 -0.340000
v -0.194999 0.560000 -0.340000
v -0.700074 -0.040000 -0.339999
v -0.700074 0.110000 -0.339999
v -0.700074 -0.040000 -0.189999
v -0.700074 0.110000 -0.189999
v -0.050000 0.110000 -0.339999
v -0.050000 0.260000 -0.339999
v -0.050000 0.110000 -0.189999
v -0.300000 0.110000 -0.339999
v -0.300000 0.260000 -0.339999
v -0.300000 0.110000 -0.189999
v -0.300000 0.260000 -0.189999
v -0.050000 0.260000 -0.189999
v 0.700000 0.560000 -0.190000
v 0.700000 0.410000 -0.190000
v 0.700000 0.560000 -0.340000
v 0.700000 0.410000 -0.340000
v 0.200000 0.560000 -0.190000
v 0.200000 0.410000 -0.190000
v 0.200000 0.560000 -0.340000
v 0.200000 0.410000 -0.340000
v -0.200338 0.709923 -0.190000
v -0.200338 0.559923 -0.190000
v -0.200338 0.709923 -0.340000
v -0.200338 0.559923 -0.340000
v -0.700338 0.709923 -0.190000
v -0.700338 0.559923 -0.190000
v -0.700338 0.709923 -0.340000
v -0.700338 0.559923 -0.340000
v 0.054755 0.260001 -0.490000
v 0.054755 0.410001 -0.490000
v 0.204755 0.260001 -0.340000
v 0.204755 0.410001 -0.340000
v 0.704755 0.260001 -0.490000
v 0.704755 0.410001 -0.490000
v 0.704755 0.260001 -0.340000
v 0.704755 0.410001 -0.340000
v -0.694999 0.410001 -0.490000
v -0.694999 0.560001 -0.490000
v -0.694999 0.410001 -0.340000
v -0.694999 0.560001 -0.340000
v -0.045000 0.560000 -0.490000
v -0.045000 0.710000 -0.490000
v -0.195000 0.560000 -0.340000
v -0.195000 0.710000 -0.340000
v -0.795000 0.560000 -0.490000
v -0.795000 0.710000 -0.490000
v -0.795000 0.560000 -0.340000
v -0.795000 0.710000 -0.340000
v -0.795000 0.410000 -0.340000
v -0.795000 0.260000 -0.340000
v -0.795000 0.410000 -0.490000
v -0.795000 0.260000 -0.490000
v -0.195000 0.410000 -0.340000
v -0.195000 0.260000 -0.340000
v -0.045000 0.410000 -0.490000
v -0.045000 0.260000 -0.490000
v -0.700312 0.260000 -0.339999
v -0.700312 0.110000 -0.339999
v -0.700312 0.260000 -0.489999
v -0.700312 0.110000 -0.489999
v 0.799762 0.260000 -0.340000
v 0.799762 0.110000 -0.340000
v 0.799762 0.260000 -0.490000
v 0.799762 0.110000 -0.490000
v 0.700898 -0.040000 -0.490000
v 0.700898 0.110000 -0.490000
v 0.700898 -0.040000 -0.340000
v 0.700898 0.110000 -0.340000
v -0.799176 -0.040000 -0.489999
v -0.799176 0.110000 -0.489999
v -0.799176 -0.040000 -0.339999
v -0.799176 0.110000 -0.339999
v 0.804913 0.710000 -0.190000
v 0.804912 0.560000 -0.190000
v 0.804912 0.710000 -0.340000
v 0.804912 0.560000 -0.340000
v 0.304913 0.710000 -0.190000
v 0.304912 0.560000 -0.190000
v 0.304912 0.710000 -0.340000
v 0.304912 0.560000 -0.340000
v -0.544890 0.110000 -0.339999
v -0.544890 0.260000 -0.339999
v -0.544890 0.110000 -0.189999
v -0.794890 0.110000 -0.339999
v -0.794890 0.260000 -0.339999
v -0.794890 0.110000 -0.189999
v -0.794890 0.260000 -0.189999
v -0.544890 0.260000 -0.189999
v -0.700338 0.259923 -0.340000
v -0.700338 0.409923 -0.340000
v -0.700338 0.259923 -0.190000
v -0.700338 0.409923 -0.190000
v -0.200338 0.259923 -0.340000
v -0.200338 0.409923 -0.340000
v -0.200338 0.259923 -0.190000
v -0.200338 0.409923 -0.190000
v 0.200000 0.260000 -0.340000
v 0.200000 0.410000 -0.340000
v 0.200000 0.260000 -0.190000
v 0.200000 0.410000 -0.190000
v 0.551802 0.260000 -0.340000
v 0.551802 0.410000 -0.340000
v 0.551802 0.260000 -0.190000
v 0.551802 0.410000 -0.190000
v -0.300353 0.559923 -0.190000
v -0.300353 0.409923 -0.190000
v -0.300353 0.559923 -0.340000
v -0.300353 0.409923 -0.340000
v -0.800353 0.559923 -0.190000
v -0.800353 0.409923 -0.190000
v -0.800353 0.559923 -0.340000
v -0.800353 0.409923 -0.340000
v -0.445049 0.710000 -0.489999
v -0.445049 0.860000 -0.489999
v -0.445049 0.710000 -0.339999
v -0.695050 0.710000 -0.489999
v -0.695049 0.860000 -0.489999
v -0.695049 0.710000 -0.339999
v -0.695049 0.860000 -0.339999
v -0.445049 0.860000 -0.339999
v 0.704755 0.710001 -0.340000
v 0.704755 0.560001 -0.340000
v 0.704755 0.710001 -0.490000
v 0.704755 0.560001 -0.490000
v 0.204755 0.710001 -0.340000
v 0.204755 0.560001 -0.340000
v 0.054755 0.710001 -0.490000
v 0.054755 0.560001 -0.490000
v 0.052572 0.410000 -0.490000
v 0.052572 0.560000 -0.490000
v 0.202572 0.410000 -0.340000
v 0.202572 0.560000 -0.340000
v 0.802572 0.410000 -0.490000
v 0.802572 0.560000 -0.490000
v 0.802572 0.410000 -0.340000
v 0.802572 0.560000 -0.340000
vn -1.0000 -0.0000 -0.0000
vn 1.0000 -0.0000 -0.0000
vn -0.0000 1.0000 -0.0000
vn -0.0000 -0.0000 1.0000
vn 0.7071 -0.0000 0.7071
vn -0.7071 -0.0000 0.7071
vt 0.988815 0.373883
vt 0.988815 0.499775
vt 1.240951 0.499775
vt 1.240951 0.373883
vt 1.587970 0.374141
vt 1.587970 0.250737
vt 1.439780 0.250737
vt 1.439780 0.374141
vt 1.489349 0.373883
vt 1.489349 0.499775
vt 1.241304 0.499775
vt 1.241304 0.373883
vt 0.840210 0.124380
vt 0.348262 0.124380
vt 0.348262 0.000648
vt 0.840210 0.000648
vt 0.840203 0.124168
vt 0.348255 0.124168
vt 0.348255 0.000436
vt 0.840203 0.000436
vt 1.098352 0.750335
vt 1.098352 0.874068
vt 1.346163 0.874068
vt 1.346163 0.750335
vt 1.590300 0.750335
vt 1.590300 0.874068
vt 1.346510 0.874068
vt 1.346510 0.750335
vt -0.006645 0.250873
vt 0.205896 0.250873
vt 0.205896 0.125722
vt -0.006645 0.125722
vt 1.588863 0.374160
vt 1.588863 0.249266
vt 0.089363 0.249266
vt 0.089363 0.374160
vt 1.588704 0.374335
vt 1.588704 0.250233
vt 0.090212 0.250234
vt 0.090212 0.374335
vt 0.090301 0.250017
vt 0.090301 0.374441
vt 0.239715 0.374441
vt 0.239715 0.250017
vt 0.491146 0.500093
vt 0.491146 0.374718
vt 0.741183 0.374718
vt 0.741183 0.500093
vt 0.741183 0.374718
vt 0.741183 0.500093
vt 0.491146 0.500093
vt 0.491146 0.374718
vt 0.993117 0.625330
vt 0.993117 0.749062
vt 1.240928 0.749062
vt 1.240928 0.625330
vt 1.485065 0.625330
vt 1.485065 0.749062
vt 1.241275 0.749062
vt 1.241275 0.625330
vt 0.589495 0.873382
vt 0.090439 0.873382
vt 0.090439 0.749772
vt 0.589495 0.749772
vt 0.341831 0.873382
vt 0.341831 0.749772
vt 0.342182 0.873382
vt 0.342182 0.749772
vt 0.876462 0.624588
vt 0.876462 0.749740
vt 0.375500 0.749740
vt 0.375500 0.624588
vt 0.375000 0.000000
vt 0.375000 0.750000
vt 0.375000 0.500000
vt 0.375000 0.250000
vt 0.625000 0.250000
vt 0.625000 0.000000
vt 0.628786 0.125722
vt 0.127824 0.125722
vt 0.127824 0.250873
vt 0.628786 0.250873
vt 0.340439 0.375245
vt 0.090706 0.375245
vt 0.090707 0.250953
vt 0.340439 0.250953
vt -0.406973 0.250780
vt 0.190898 0.250780
vt 0.340366 0.375248
vt -0.406973 0.375248
vt -0.406476 0.251083
vt -0.406476 0.376083
vt -0.281476 0.376083
vt -0.281476 0.251083
vt 0.190898 0.375248
vt -0.406973 -0.000927
vt 0.190898 -0.000927
vt 0.190898 0.123541
vt -0.406973 0.123541
vt 0.622677 0.498866
vt 0.872677 0.498866
vt 0.872677 0.748866
vt 0.622677 0.748866
vt 0.241032 0.749740
vt 0.241032 0.624588
vt 0.453572 0.624588
vt 0.453572 0.749740
vt 0.866233 0.628080
vt 0.866233 0.748151
vt 0.241421 0.748151
vt 0.385608 0.628080
vt -0.406476 -0.000625
vt -0.406476 0.124375
vt -0.281476 0.124375
vt -0.281476 -0.000625
vt 0.340439 -0.000754
vt 0.090706 -0.000754
vt 0.090707 0.123538
vt 0.340439 0.123538
vt 0.340366 0.123541
vt -0.523684 0.876259
vt -0.523684 1.000682
vt -0.374269 1.000682
vt -0.374269 0.876259
vt 0.974720 1.000577
vt 0.974720 0.876475
vt -0.523772 0.876475
vt -0.523772 1.000577
vt 0.973986 1.000382
vt 0.973986 0.876978
vt 0.825795 0.876978
vt 0.825795 1.000382
vt 0.974878 1.000401
vt 0.974878 0.875507
vt -0.524622 0.875507
vt -0.524622 1.000401
vt 1.587970 0.623296
vt 1.587970 0.499892
vt 1.439780 0.499892
vt 1.439780 0.623296
vt 1.588863 0.623315
vt 1.588863 0.498421
vt 0.089363 0.498421
vt 0.089363 0.623315
vt 1.588704 0.623490
vt 1.588704 0.499389
vt 0.090212 0.499389
vt 0.090212 0.623491
vt 0.090301 0.499172
vt 0.090301 0.623596
vt 0.239715 0.623596
vt 0.239715 0.499172
vt -0.004048 0.497377
vt -0.004048 0.377434
vt 0.235157 0.377434
vt 0.235157 0.497377
vt 0.090439 0.499961
vt 0.090439 0.623570
vt 0.341831 0.623570
vt 0.341831 0.499961
vt 0.589495 0.499961
vt 0.589495 0.623570
vt 0.342182 0.623570
vt 0.342182 0.499961
vt 0.234785 0.499986
vt 0.234785 0.623856
vt 0.482872 0.623856
vt 0.482872 0.499986
vt 0.234438 0.499986
vt 0.234438 0.623856
vt -0.009624 0.623856
vt -0.009624 0.499986
vt 0.482872 0.623856
vt 0.339906 0.623856
vt 0.339906 0.499986
vt 0.490390 0.749939
vt -0.008665 0.749939
vt -0.008665 0.626329
vt 0.490390 0.626329
vt 0.242726 0.749939
vt 0.242726 0.626329
vt 0.243078 0.749939
vt 0.243078 0.626329
vt 0.740816 0.500093
vt 0.740816 0.374718
vt 0.990853 0.374718
vt 0.990853 0.500093
vt 0.740816 0.500093
vt 0.740816 0.374718
vt 0.990853 0.374718
vt 0.990853 0.500093
vt 0.876462 0.873933
vt 0.876462 0.999084
vt 0.375500 0.999084
vt 0.375500 0.873933
vt 0.622677 0.748211
vt 0.872677 0.748211
vt 0.872677 0.998211
vt 0.622677 0.998211
vt 0.241032 0.999084
vt 0.241032 0.873933
vt 0.453572 0.873933
vt 0.453572 0.999084
vt 0.866233 0.877424
vt 0.866233 0.997495
vt 0.241421 0.997495
vt 0.385608 0.877424
vt 0.090241 0.874574
vt 0.090241 0.750283
vt 0.339974 0.750283
vt 0.339974 0.874574
vt 0.837654 0.750109
vt 0.837654 0.874577
vt 0.090315 0.874577
vt 0.239782 0.750109
vt 0.837157 0.750412
vt 0.712157 0.750412
vt 0.712157 0.875412
vt 0.837157 0.875412
vt 0.239782 0.874577
s 0
usemtl Mockup
f 4/1/1 2/2/1 1/3/1 3/4/1
f 6/5/2 8/6/2 7/7/2 5/8/2
f 10/9/2 12/10/2 11/11/2 9/12/2
f 10/10/3 2/2/3 4/1/3 12/9/3
f 12/10/4 4/2/4 3/1/4 11/9/4
f 20/13/4 16/14/4 15/15/4 19/16/4
f 18/17/3 14/18/3 16/19/3 20/20/3
f 16/21/1 14/22/1 13/23/1 15/24/1
f 18/25/2 20/26/2 19/27/2 17/28/2
f 22/29/5 24/30/5 23/31/5 21/32/5
f 8/33/3 6/34/3 26/35/3 28/36/3
f 7/37/4 8/38/4 28/39/4 27/40/4
f 28/41/1 26/42/1 25/43/1 27/44/1
f 30/45/2 36/46/2 31/47/2 29/48/2
f 35/48/1 33/47/1 32/46/1 34/45/1
f 36/48/4 35/45/4 34/46/4 31/47/4
f 33/49/3 35/50/3 36/51/3 30/52/3
f 41/53/1 43/54/1 44/55/1 42/56/1
f 39/57/2 37/58/2 38/59/2 40/60/2
f 39/58/3 43/54/3 41/53/3 37/57/3
f 37/58/4 41/54/4 42/53/4 38/57/4
f 47/61/3 51/62/3 49/63/3 45/64/3
f 49/63/1 51/62/1 52/65/1 50/66/1
f 45/61/4 49/62/4 50/63/4 46/64/4
f 47/64/2 45/61/2 46/67/2 48/68/2
f 59/69/4 60/70/4 56/71/4 55/72/4
f 64/73/3 24/74/3 22/75/3 62/76/3
f 64/73/1 62/76/1 61/77/1 63/78/1
f 63/79/4 23/80/4 24/81/4 64/82/4
f 66/83/5 68/84/5 67/85/5 65/86/5
f 72/87/3 68/88/3 66/89/3 70/90/3
f 72/91/1 70/92/1 69/93/1 71/94/1
f 71/87/4 67/88/4 68/95/4 72/90/4
f 74/96/4 78/97/4 77/98/4 73/99/4
f 60/100/2 59/101/2 57/102/2 58/103/2
f 54/104/6 53/105/6 55/106/6 56/107/6
f 60/108/3 58/109/3 54/110/3 56/111/3
f 73/112/1 75/113/1 76/114/1 74/115/1
f 79/116/5 77/117/5 78/118/5 80/119/5
f 73/96/3 77/97/3 79/120/3 75/99/3
f 81/121/1 83/122/1 84/123/1 82/124/1
f 86/125/4 85/126/4 81/127/4 82/128/4
f 87/129/2 85/130/2 86/131/2 88/132/2
f 85/133/3 87/134/3 83/135/3 81/136/3
f 90/137/2 92/138/2 91/139/2 89/140/2
f 92/141/3 90/142/3 94/143/3 96/144/3
f 91/145/4 92/146/4 96/147/4 95/148/4
f 96/149/1 94/150/1 93/151/1 95/152/1
f 101/21/1 103/22/1 104/23/1 102/24/1
f 99/25/2 97/26/2 98/27/2 100/28/2
f 99/26/3 103/22/3 101/21/3 97/25/3
f 97/26/4 101/22/4 102/21/4 98/25/4
f 106/153/2 112/154/2 107/155/2 105/156/2
f 111/156/1 109/155/1 108/154/1 110/153/1
f 112/156/4 111/153/4 110/154/4 107/155/4
f 109/155/3 111/156/3 112/153/3 106/154/3
f 116/157/1 114/158/1 113/159/1 115/160/1
f 118/161/2 120/162/2 119/163/2 117/164/2
f 118/162/3 114/158/3 116/157/3 120/161/3
f 120/162/4 116/158/4 115/157/4 119/161/4
f 124/165/1 122/166/1 121/167/1 123/168/1
f 126/169/2 128/170/2 127/171/2 125/172/2
f 126/173/3 122/171/3 124/172/3 128/168/3
f 128/174/4 124/171/4 123/172/4 127/175/4
f 131/176/3 135/177/3 133/178/3 129/179/3
f 133/178/1 135/177/1 136/180/1 134/181/1
f 129/176/4 133/177/4 134/178/4 130/179/4
f 131/179/2 129/176/2 130/182/2 132/183/2
f 138/184/2 144/185/2 139/186/2 137/187/2
f 143/187/1 141/186/1 140/185/1 142/184/1
f 144/187/4 143/184/4 142/185/4 139/186/4
f 141/188/3 143/189/3 144/190/3 138/191/3
f 146/192/4 145/193/4 149/194/4 150/195/4
f 145/196/2 146/197/2 148/198/2 147/199/2
f 151/200/6 152/201/6 150/202/6 149/203/6
f 145/204/3 147/205/3 151/206/3 149/207/3
f 154/208/6 153/209/6 155/210/6 156/211/6
f 160/212/3 158/213/3 154/214/3 156/215/3
f 160/216/2 159/217/2 157/218/2 158/219/2
f 159/212/4 160/213/4 156/220/4 155/215/4
