# Blender 4.1.0
# www.blender.org
mtllib Treppe Collider Rechts.mtl
o Cube
v 0.550288 0.110179 -0.720227
v 0.550288 1.458440 -0.720227
v 0.550288 0.110179 0.178191
v 0.550288 1.458440 0.178191
v -0.799111 0.110179 -0.720227
v 0.793530 1.458440 -0.720227
v -0.799111 0.110179 0.178191
v 0.793530 0.110179 -0.720227
v 0.793530 0.110179 0.178191
v 0.793530 1.458440 0.178191
v 0.550288 -0.047809 0.178191
v 0.550288 -0.047809 -0.720227
v -0.799111 -0.047809 0.178191
v 0.793530 -0.047809 0.178191
v 0.793530 -0.047809 -0.720227
v -0.799111 -0.047809 -0.720227
v 0.814154 -0.049539 0.184111
v 0.814154 1.460263 0.184111
v 0.814154 -0.049539 0.360180
v 0.814154 1.460263 0.360180
v -0.804644 -0.049539 0.184111
v -0.804644 1.460263 0.184111
v -0.804644 -0.049539 0.360180
v -0.804644 1.460263 0.360180
vn -0.0000 -0.0000 -1.0000
vn -0.0000 -0.0000 1.0000
vn -0.0000 1.0000 -0.0000
vn 1.0000 -0.0000 -0.0000
vn -0.7068 0.7074 -0.0000
vn -0.0000 -1.0000 -0.0000
vn -1.0000 -0.0000 -0.0000
vt 0.625000 0.000000
vt 0.375000 0.000000
vt 0.375000 0.250000
vt 0.625000 0.250000
vt 0.375000 0.500000
vt 0.375000 0.750000
vt 0.625000 1.000000
vt 0.375000 1.000000
vt 0.875000 0.500000
vt 0.875000 0.750000
vt 0.125000 0.500000
vt 0.125000 0.750000
vt 0.625000 0.500000
vt 0.625000 0.750000
s 0
f 2/1/1 6/1/1 8/2/1 1/2/1
f 3/3/2 4/4/2 7/5/2
f 2/1/3 4/4/3 10/4/3 6/1/3
f 5/6/1 2/7/1 1/8/1
f 1/2/1 8/2/1 15/2/1 12/2/1
f 8/2/4 9/3/4 14/3/4 15/2/4
f 4/9/5 2/10/5 5/6/5 7/5/5
f 9/3/4 8/2/4 6/1/4 10/4/4
f 4/4/2 3/3/2 9/3/2 10/4/2
f 11/11/6 13/5/6 16/6/6 12/12/6
f 11/3/6 12/2/6 15/2/6 14/3/6
f 5/6/1 1/8/1 12/8/1 16/6/1
f 3/3/2 7/5/2 13/5/2 11/3/2
f 9/3/2 3/3/2 11/3/2 14/3/2
f 7/5/7 5/6/7 16/6/7 13/5/7
f 17/2/4 18/1/4 20/4/4 19/3/4
f 19/3/2 20/4/2 24/13/2 23/5/2
f 23/5/7 24/13/7 22/14/7 21/6/7
f 21/6/1 22/14/1 18/7/1 17/8/1
f 19/11/6 23/5/6 21/6/6 17/12/6
f 24/13/3 20/9/3 18/10/3 22/14/3
