# Blender 4.1.0
# www.blender.org
o Cube.301
v -0.080709 -0.076183 0.074441
v -0.080709 0.076183 0.074441
v -0.077387 -0.076183 -0.077888
v -0.077387 0.076183 -0.077888
v -0.064728 -0.076183 0.074789
v -0.064728 0.076183 0.074789
v -0.061406 -0.076183 -0.077540
v -0.061406 0.076183 -0.077540
v -0.076199 -0.075586 -0.090555
v -0.076489 -0.088872 -0.077272
v -0.077077 -0.079489 -0.081189
v -0.076284 -0.084980 -0.086664
v -0.079785 -0.088872 0.073864
v -0.080075 -0.075586 0.087147
v -0.080543 -0.079489 0.077752
v -0.079990 -0.084980 0.083256
v -0.080075 0.075586 0.087147
v -0.079785 0.088872 0.073864
v -0.080543 0.079489 0.077752
v -0.079990 0.084980 0.083256
v -0.076489 0.088872 -0.077272
v -0.076199 0.075586 -0.090555
v -0.077077 0.079489 -0.081189
v -0.076284 0.084980 -0.086664
v -0.062040 0.075586 -0.090246
v -0.062330 0.088872 -0.076963
v -0.061571 0.079489 -0.080851
v -0.062125 0.084980 -0.086355
v -0.062330 -0.088872 -0.076963
v -0.062040 -0.075586 -0.090246
v -0.061571 -0.079489 -0.080851
v -0.062125 -0.084980 -0.086355
v -0.065915 -0.075586 0.087456
v -0.065626 -0.088872 0.074172
v -0.065037 -0.079489 0.078090
v -0.065831 -0.084980 0.083565
v -0.065626 0.088872 0.074172
v -0.065915 0.075586 0.087456
v -0.065037 0.079489 0.078090
v -0.065831 0.084980 0.083565
v 0.047194 -0.076183 0.077230
v 0.047194 0.076183 0.077230
v 0.050516 -0.076183 -0.075099
v 0.050516 0.076183 -0.075099
v 0.063175 -0.076183 0.077578
v 0.063175 0.076183 0.077578
v 0.066497 -0.076183 -0.074751
v 0.066497 0.076183 -0.074751
v 0.051704 -0.075586 -0.087765
v 0.051414 -0.088872 -0.074482
v 0.050826 -0.079489 -0.078400
v 0.051619 -0.084980 -0.083875
v 0.048118 -0.088872 0.076653
v 0.047828 -0.075586 0.089936
v 0.047359 -0.079489 0.080541
v 0.047913 -0.084980 0.086046
v 0.047828 0.075586 0.089936
v 0.048118 0.088872 0.076653
v 0.047359 0.079489 0.080541
v 0.047913 0.084980 0.086046
v 0.051414 0.088872 -0.074482
v 0.051704 0.075586 -0.087765
v 0.050826 0.079489 -0.078400
v 0.051619 0.084980 -0.083875
v 0.065863 0.075586 -0.087457
v 0.065573 0.088872 -0.074174
v 0.066332 0.079489 -0.078061
v 0.065778 0.084980 -0.083566
v 0.065573 -0.088872 -0.074174
v 0.065863 -0.075586 -0.087457
v 0.066332 -0.079489 -0.078061
v 0.065778 -0.084980 -0.083566
v 0.061987 -0.075586 0.090245
v 0.062277 -0.088872 0.076962
v 0.062865 -0.079489 0.080879
v 0.062072 -0.084980 0.086354
v 0.062277 0.088872 0.076962
v 0.061987 0.075586 0.090245
v 0.062865 0.079489 0.080879
v 0.062072 0.084980 0.086354
vn -0.9993 -0.0359 0.0141
vn -0.9993 0.0359 0.0141
vn -0.9977 -0.0359 -0.0576
vn -0.9977 0.0359 -0.0576
vn 0.9977 -0.0359 0.0576
vn 0.9977 0.0359 0.0576
vn 0.9993 -0.0359 -0.0141
vn 0.9993 0.0359 -0.0141
vn -0.6235 -0.1469 -0.7679
vn -0.6367 -0.7542 -0.1608
vn -0.9967 -0.0453 -0.0671
vn -0.5907 -0.5640 -0.5770
vn -0.6431 -0.7542 0.1329
vn -0.6563 -0.1469 0.7400
vn -0.9987 -0.0453 0.0236
vn -0.6153 -0.5640 0.5507
vn -0.6563 0.1469 0.7400
vn -0.6431 0.7542 0.1329
vn -0.9987 0.0453 0.0236
vn -0.6153 0.5640 0.5507
vn -0.6367 0.7542 -0.1608
vn -0.6235 0.1469 -0.7679
vn -0.9967 0.0453 -0.0671
vn -0.5907 0.5640 -0.5770
vn 0.6563 0.1469 -0.7400
vn 0.6431 0.7542 -0.1329
vn 0.9987 0.0453 -0.0236
vn 0.6153 0.5640 -0.5507
vn 0.6431 -0.7542 -0.1329
vn 0.6563 -0.1469 -0.7400
vn 0.9987 -0.0453 -0.0236
vn 0.6153 -0.5640 -0.5507
vn 0.6235 -0.1469 0.7679
vn 0.6367 -0.7542 0.1608
vn 0.9967 -0.0453 0.0671
vn 0.5907 -0.5640 0.5770
vn 0.6367 0.7542 0.1608
vn 0.6235 0.1469 0.7679
vn 0.9967 0.0453 0.0671
vn 0.5907 0.5640 0.5770
vt 1.031864 0.692124
vt 1.032327 0.679734
vt 1.617931 0.678352
vt 1.616452 0.695852
vt 0.475805 0.702349
vt -0.028197 0.704265
vt -0.027623 0.701127
vt 0.011660 0.692175
vt 0.440083 0.691606
vt 0.476308 0.699537
vt 0.977697 0.701825
vt 0.476308 0.699536
vt 0.515317 0.691574
vt 0.942904 0.691778
vt 0.978423 0.699211
vt 0.478741 0.668602
vt 0.983042 0.667813
vt 0.982473 0.670951
vt 0.943183 0.679820
vt 0.514506 0.679418
vt 0.478243 0.671412
vt 0.942904 0.691778
vt 0.514506 0.679418
vt -0.660872 0.674756
vt -0.076880 0.679841
vt -0.077510 0.692228
vt -0.663666 0.692268
vt 0.439277 0.679451
vt 0.440083 0.691606
vt 0.011660 0.692175
vt 0.011999 0.680220
vt -0.648557 0.707934
vt -0.665918 0.703853
vt -0.663666 0.692268
vt -0.077510 0.692228
vt -0.027623 0.701127
vt -0.022766 0.670255
vt 0.478243 0.671412
vt 0.439277 0.679451
vt 0.011999 0.680220
vt -0.023493 0.672870
vt -0.656676 0.662697
vt -0.076880 0.679841
vt -0.660872 0.674756
vt -0.671144 0.665723
vt 1.602234 0.662750
vt 1.619736 0.666784
vt 1.032327 0.679734
vt 0.982473 0.670951
vt 0.969478 0.691791
vt 0.978423 0.699212
vt 0.980485 0.691796
vt -0.680393 0.700450
vt -0.694803 0.697062
vt -0.041082 0.692226
vt -0.025994 0.692225
vt 0.466708 0.691571
vt 0.477736 0.691556
vt 0.487865 0.679394
vt 0.476830 0.679383
vt 0.995934 0.679820
vt 0.980859 0.679855
vt 1.669399 0.678231
vt 1.654325 0.678266
vt 1.633053 0.678316
vt -0.014555 0.680268
vt -0.025554 0.680288
vt 1.667831 0.696179
vt -0.715183 0.692271
vt -0.712198 0.674309
vt 1.612738 0.707934
vt 1.031864 0.692124
vt 1.616452 0.695852
vt 1.627094 0.704871
s 1
f 10/1/10 29/2/29 34/3/34 13/4/13
f 4/5/4 2/6/2 19/7/19 18/8/18 21/9/21 23/10/23
f 3/11/3 4/5/4 23/12/23 22/13/22 9/14/9 11/15/11
f 8/16/8 7/17/7 31/18/31 30/19/30 25/20/25 27/21/27
f 9/22/9 22/13/22 25/23/25 30/19/30
f 33/24/33 38/25/38 17/26/17 14/27/14
f 26/28/26 21/29/21 18/30/18 37/31/37
f 2/6/2 1/32/1 15/33/15 14/34/14 17/35/17 19/36/19
f 6/37/6 8/16/8 27/38/27 26/39/26 37/40/37 39/41/39
f 5/42/5 6/37/6 39/41/39 38/43/38 33/44/33 35/45/35
f 7/17/7 5/46/5 35/47/35 34/3/34 29/48/29 31/49/31
f 9/22/9 12/50/12 11/51/11
f 12/50/12 10/52/10 11/51/11
f 13/53/13 16/54/16 15/33/15
f 16/54/16 14/34/14 15/33/15
f 17/26/17 20/55/20 19/7/19
f 20/55/20 18/56/18 19/7/19
f 21/29/21 24/57/24 23/12/23
f 24/57/24 22/58/22 23/12/23
f 25/23/25 28/59/28 27/38/27
f 28/59/28 26/60/26 27/38/27
f 29/2/29 32/61/32 31/18/31
f 32/61/32 30/62/30 31/18/31
f 33/63/33 36/64/36 35/65/35
f 36/64/36 34/3/34 35/65/35
f 37/31/37 40/66/40 39/41/39
f 40/66/40 38/67/38 39/41/39
f 29/2/29 10/1/10 12/52/12 32/62/32
f 32/62/32 12/52/12 9/22/9 30/19/30
f 21/29/21 26/28/26 28/60/28 24/58/24
f 24/58/24 28/60/28 25/23/25 22/13/22
f 13/4/13 34/3/34 36/63/36 16/68/16
f 16/69/16 36/70/36 33/24/33 14/27/14
f 37/31/37 18/30/18 20/56/20 40/67/40
f 40/67/40 20/56/20 17/26/17 38/25/38
f 1/71/1 3/11/3 11/51/11 10/72/10 13/73/13 15/74/15
f 50/1/10 69/2/29 74/3/34 53/4/13
f 44/5/4 42/6/2 59/7/19 58/8/18 61/9/21 63/10/23
f 43/11/3 44/5/4 63/12/23 62/13/22 49/14/9 51/15/11
f 48/16/8 47/17/7 71/18/31 70/19/30 65/20/25 67/21/27
f 49/22/9 62/13/22 65/23/25 70/19/30
f 73/24/33 78/25/38 57/26/17 54/27/14
f 66/28/26 61/29/21 58/30/18 77/31/37
f 42/6/2 41/32/1 55/33/15 54/34/14 57/35/17 59/36/19
f 46/37/6 48/16/8 67/38/27 66/39/26 77/40/37 79/41/39
f 45/42/5 46/37/6 79/41/39 78/43/38 73/44/33 75/45/35
f 47/17/7 45/46/5 75/47/35 74/3/34 69/48/29 71/49/31
f 49/22/9 52/50/12 51/51/11
f 52/50/12 50/52/10 51/51/11
f 53/53/13 56/54/16 55/33/15
f 56/54/16 54/34/14 55/33/15
f 57/26/17 60/55/20 59/7/19
f 60/55/20 58/56/18 59/7/19
f 61/29/21 64/57/24 63/12/23
f 64/57/24 62/58/22 63/12/23
f 65/23/25 68/59/28 67/38/27
f 68/59/28 66/60/26 67/38/27
f 69/2/29 72/61/32 71/18/31
f 72/61/32 70/62/30 71/18/31
f 73/63/33 76/64/36 75/65/35
f 76/64/36 74/3/34 75/65/35
f 77/31/37 80/66/40 79/41/39
f 80/66/40 78/67/38 79/41/39
f 69/2/29 50/1/10 52/52/12 72/62/32
f 72/62/32 52/52/12 49/22/9 70/19/30
f 61/29/21 66/28/26 68/60/28 64/58/24
f 64/58/24 68/60/28 65/23/25 62/13/22
f 53/4/13 74/3/34 76/63/36 56/68/16
f 56/69/16 76/70/36 73/24/33 54/27/14
f 77/31/37 58/30/18 60/56/20 80/67/40
f 80/67/40 60/56/20 57/26/17 78/25/38
f 41/71/1 43/11/3 51/51/11 50/72/10 53/73/13 55/74/15
