# Blender 4.1.0
# www.blender.org
o Plane.012
v 3.904916 -0.000001 0.456707
v 3.659476 -0.000000 0.705340
v -2.200270 -0.000004 -0.379973
v 3.254392 -0.000000 0.840485
v -2.311170 -0.000005 -0.118786
v -2.439749 -0.000005 0.141381
v -2.648828 -0.000005 0.334681
v -2.912174 -0.000005 0.442973
v -3.196752 -0.000005 0.452670
v -3.466859 -0.000005 0.362556
v -3.715265 -0.000004 0.267635
v 2.827606 -0.000000 0.825942
v 2.432661 -0.000000 0.663536
v 2.064489 -0.000000 0.438500
v 1.910159 -0.000001 -0.025943
v 1.843705 -0.000001 -0.433398
v 3.715265 -0.000004 0.267635
v 3.466860 -0.000005 0.362556
v 3.196753 -0.000005 0.452670
v 2.912175 -0.000005 0.442973
v 2.648828 -0.000005 0.334681
v 2.439749 -0.000005 0.141381
v 2.311170 -0.000005 -0.118786
v 2.200270 -0.000004 -0.379973
v -1.843705 -0.000001 -0.433398
v -1.910159 -0.000001 -0.025943
v -2.064488 -0.000000 0.438500
v -2.432661 -0.000000 0.663536
v -2.827605 -0.000000 0.825942
v -3.254391 -0.000000 0.840485
v -3.659475 -0.000000 0.705340
v -3.904915 -0.000001 0.456707
v 1.573915 -0.000000 0.389152
v 1.049276 -0.000000 0.389152
v 0.524638 -0.000000 0.389152
v -0.000000 -0.000000 0.389152
v -0.524638 -0.000000 0.389152
v -1.049276 -0.000000 0.389152
v -1.573915 -0.000000 0.389152
v 1.444703 -0.000000 -0.007374
v 0.963135 -0.000000 -0.007374
v 0.481568 -0.000000 -0.007374
v 0.000000 -0.000000 -0.007374
v -0.481567 -0.000000 -0.007374
v -0.963135 -0.000000 -0.007374
v -1.444702 -0.000000 -0.007374
v 1.389496 -0.000000 -0.433398
v 0.926331 -0.000000 -0.433398
v 0.463165 -0.000000 -0.433398
v 0.000000 -0.000000 -0.433398
v -0.463165 -0.000000 -0.433398
v -0.926331 -0.000000 -0.433398
v -1.389496 -0.000000 -0.433398
v 2.048405 -0.000003 -0.426614
v 2.869890 -0.000003 0.634457
v 2.116706 -0.000003 -0.065401
v 3.225572 -0.000003 0.646577
v -2.272611 -0.000005 -0.265173
v -2.364153 -0.000005 0.019311
v -2.535686 -0.000005 0.247336
v -2.775681 -0.000005 0.400547
v -3.054031 -0.000005 0.460486
v -3.335816 -0.000005 0.419634
v -3.589043 -0.000005 0.293721
v 3.826577 -0.000000 0.588612
v 3.040352 -0.000000 0.852208
v 2.256154 -0.000000 0.540651
v 3.589044 -0.000005 0.293721
v 3.335817 -0.000005 0.419634
v 2.775682 -0.000005 0.400547
v 3.054032 -0.000005 0.460486
v 2.535686 -0.000005 0.247336
v 2.364153 -0.000005 0.019311
v 2.272611 -0.000005 -0.265173
v 3.563168 -0.000003 0.533948
v 3.844738 -0.000003 0.334263
v 1.979832 -0.000001 0.171953
v 2.622906 -0.000000 0.762316
v 2.274390 -0.000003 0.262317
v 1.868580 -0.000001 -0.226677
v 3.462948 -0.000000 0.790941
v 2.540744 -0.000003 0.499109
v -1.868580 -0.000001 -0.226677
v -1.979832 -0.000001 0.171953
v -2.256153 -0.000000 0.540651
v -2.622905 -0.000000 0.762316
v -3.040351 -0.000000 0.852208
v -3.462948 -0.000000 0.790941
v -3.826577 -0.000000 0.588612
v -2.274390 -0.000003 0.262317
v -2.116706 -0.000003 -0.065401
v -3.844738 -0.000003 0.334263
v -3.563167 -0.000003 0.533948
v -3.225571 -0.000003 0.646577
v -2.869890 -0.000003 0.634457
v -2.540744 -0.000003 0.499109
v -2.048405 -0.000003 -0.426614
v -1.831976 -0.000000 0.395321
v -1.683472 -0.000000 -0.009695
v -1.619959 -0.000000 -0.433398
v 1.831976 -0.000000 0.395321
v 1.311595 -0.000000 0.389152
v 0.786957 -0.000000 0.389152
v 0.262319 -0.000000 0.389152
v -0.262319 -0.000000 0.389152
v -0.786957 -0.000000 0.389152
v -1.311596 -0.000000 0.389152
v 1.683473 -0.000000 -0.009695
v 1.203919 -0.000000 -0.007374
v 0.722351 -0.000000 -0.007374
v 0.240784 -0.000000 -0.007374
v -0.240784 -0.000000 -0.007374
v -0.722351 -0.000000 -0.007374
v -1.203919 -0.000000 -0.007374
v 1.619959 -0.000000 -0.433398
v 1.157913 -0.000000 -0.433398
v 0.694748 -0.000000 -0.433398
v 0.231583 -0.000000 -0.433398
v -0.231583 -0.000000 -0.433398
v -0.694748 -0.000000 -0.433398
v -1.157913 -0.000000 -0.433398
v 1.410161 -0.000000 -0.217621
v 0.940108 -0.000000 -0.217621
v 0.470054 -0.000000 -0.217621
v 0.000000 -0.000000 -0.217621
v -0.470054 -0.000000 -0.217621
v -0.940107 -0.000000 -0.217621
v -1.410161 -0.000000 -0.217621
v 1.502370 -0.000000 0.193654
v 1.001580 -0.000000 0.193654
v 0.500790 -0.000000 0.193654
v -0.000000 -0.000000 0.193654
v -0.500790 -0.000000 0.193654
v -1.001580 -0.000000 0.193654
v -1.502370 -0.000000 0.193654
v 2.077575 -0.000003 -0.244791
v 3.711742 -0.000003 0.438000
v 3.399382 -0.000003 0.605287
v 2.181540 -0.000003 0.104084
v 2.398196 -0.000003 0.391291
v 3.047191 -0.000003 0.656347
v 2.699294 -0.000003 0.581432
v -2.181540 -0.000003 0.104084
v -3.711742 -0.000003 0.438000
v -3.047191 -0.000003 0.656347
v -2.398195 -0.000003 0.391291
v -2.077575 -0.000003 -0.244791
v -3.399382 -0.000003 0.605287
v -2.699293 -0.000003 0.581432
v -1.749792 -0.000000 0.191902
v -1.643734 -0.000000 -0.218753
v 1.643734 -0.000000 -0.218753
v 1.175135 -0.000000 -0.217621
v 0.705081 -0.000000 -0.217621
v 0.235027 -0.000000 -0.217621
v -0.235027 -0.000000 -0.217621
v -0.705081 -0.000000 -0.217621
v -1.175134 -0.000000 -0.217621
v 1.749793 -0.000000 0.191902
v 1.251975 -0.000000 0.193654
v 0.751185 -0.000000 0.193654
v 0.250395 -0.000000 0.193654
v -0.250395 -0.000000 0.193654
v -0.751185 -0.000000 0.193654
v -1.251975 -0.000000 0.193654
vn -0.0000 1.0000 -0.0000
vt -0.474753 4.371905
vt -0.821747 4.371905
vt -0.821747 4.003040
vt -0.474753 4.002732
vt -1.168741 4.371905
vt -1.168741 4.003881
vt -1.168741 3.635856
vt -0.821747 3.628995
vt -0.474753 3.626662
vt 3.689177 4.371905
vt 3.342182 4.371905
vt 3.342182 4.003881
vt 3.689176 4.003881
vt 2.995187 4.371905
vt 2.995188 4.003881
vt 2.995187 3.635856
vt 3.342182 3.635856
vt 3.689176 3.635856
vt 2.648194 4.371905
vt 2.648194 4.003881
vt 2.301199 4.371905
vt 2.301200 4.003881
vt 2.301200 3.635856
vt 2.648194 3.635856
vt 0.219235 4.371905
vt -0.127759 4.371905
vt -0.127759 4.003110
vt 0.219235 4.003742
vt -0.127759 3.629692
vt 0.219235 3.635856
vt 0.913223 4.371905
vt 0.566229 4.371905
vt 0.566229 4.003881
vt 0.913223 4.003881
vt 0.566229 3.635856
vt 0.913223 3.635856
vt 1.954206 4.371905
vt 1.954206 4.003881
vt 1.607212 4.371905
vt 1.607212 4.003881
vt 1.607211 3.635856
vt 1.954206 3.635856
vt 1.260218 4.371905
vt 1.260218 4.003881
vt 1.260217 3.635856
vt 0.219235 -2.988574
vt 0.219235 -2.620811
vt -0.127759 -2.622052
vt -0.127759 -2.988574
vt 0.219235 -2.252525
vt -0.127759 -2.264541
vt -0.474753 -2.273422
vt -0.474753 -2.623162
vt -0.474753 -2.988573
vt 3.689176 -2.988575
vt 3.689176 -2.620550
vt 3.342181 -2.620550
vt 3.342182 -2.988574
vt 3.689176 -2.252526
vt 3.342182 -2.252526
vt 2.995187 -2.252525
vt 2.995187 -2.620549
vt 2.995187 -2.988573
vt 2.301199 -2.988573
vt 2.301199 -2.620549
vt 1.954205 -2.620549
vt 1.954206 -2.988574
vt 2.301199 -2.252525
vt 1.954206 -2.252526
vt 1.607211 -2.252525
vt 1.607211 -2.620549
vt 1.607211 -2.988573
vt 0.913223 -2.988574
vt 0.913223 -2.620549
vt 0.566229 -2.620550
vt 0.566229 -2.988574
vt 0.913223 -2.252525
vt 0.566229 -2.252526
vt -0.821747 -2.623096
vt -0.821747 -2.988574
vt -0.821747 -2.274989
vt -1.168741 -2.252525
vt -1.168741 -2.620550
vt -1.168741 -2.988574
vt 2.648193 -2.620549
vt 2.648194 -2.988574
vt 2.648194 -2.252526
vt 1.260217 -2.620550
vt 1.260217 -2.988574
vt 1.260217 -2.252526
vt 0.219235 -1.516478
vt -0.127759 -1.570948
vt -0.127759 -1.919847
vt 0.219235 -1.884502
vt -0.474753 -1.611208
vt -0.474753 -1.945972
vt -0.127759 -2.264541
vt -0.821747 -1.630851
vt -0.821747 -1.956973
vt -1.168741 -1.666932
vt -1.168741 -1.959729
vt -0.821747 3.247341
vt -0.474753 3.240424
vt -1.168741 3.262818
vt -1.168741 2.889779
vt -0.821747 2.869718
vt -0.474753 2.855230
vt -0.821747 2.509578
vt -0.474753 2.482783
vt -1.168741 2.556861
vt -1.168741 2.223943
vt -0.821747 2.160035
vt -0.474753 2.122247
vt -0.821747 1.810322
vt -0.474753 1.767876
vt -1.168741 1.860935
vt -1.168741 1.497926
vt -0.821747 1.449620
vt -0.474753 1.406817
vt -0.821747 1.068318
vt -0.474753 1.031340
vt -1.168741 1.094796
vt -1.168741 0.691666
vt -0.821747 0.690099
vt -0.474753 0.661296
vt -0.821747 0.336894
vt -0.474753 0.312497
vt -1.168741 0.358748
vt -1.168741 0.025831
vt -0.821747 -0.024425
vt -0.474753 -0.042989
vt -0.821747 -0.428953
vt -0.474753 -0.432919
vt -1.168741 -0.417421
vt -1.168741 -0.860672
vt -0.821747 -0.850085
vt -0.474753 -0.840611
vt -0.821747 -1.256689
vt -0.474753 -1.239911
vt -1.168741 -1.263802
vt -0.127759 3.249222
vt 0.219235 3.267833
vt -0.127759 2.867768
vt 0.219235 2.899809
vt -0.127759 2.490980
vt 0.219235 2.521755
vt -0.127759 2.116431
vt 0.219235 2.143701
vt -0.127759 1.736209
vt 0.219235 1.710480
vt -0.127759 1.353914
vt 0.219235 1.277259
vt -0.127759 0.977070
vt 0.219235 0.909235
vt -0.127759 0.615568
vt 0.219235 0.541211
vt -0.127759 0.282285
vt 0.219235 0.248415
vt -0.127759 -0.054656
vt 0.219235 -0.044382
vt -0.127759 -0.426515
vt 0.219235 -0.412406
vt -0.127759 -0.815536
vt 0.219235 -0.780429
vt -0.127759 -1.201104
vt 0.219235 -1.148454
s 0
f 23/1/1 74/2/1 136/3/1 56/4/1
f 74/2/1 24/5/1 54/6/1 136/3/1
f 136/3/1 54/6/1 16/7/1 80/8/1
f 56/4/1 136/3/1 80/8/1 15/9/1
f 17/10/1 68/11/1 137/12/1 76/13/1
f 68/11/1 18/14/1 75/15/1 137/12/1
f 137/12/1 75/15/1 2/16/1 65/17/1
f 76/13/1 137/12/1 65/17/1 1/18/1
f 18/14/1 69/19/1 138/20/1 75/15/1
f 69/19/1 19/21/1 57/22/1 138/20/1
f 138/20/1 57/22/1 4/23/1 81/24/1
f 75/15/1 138/20/1 81/24/1 2/16/1
f 22/25/1 73/26/1 139/27/1 79/28/1
f 73/26/1 23/1/1 56/4/1 139/27/1
f 139/27/1 56/4/1 15/9/1 77/29/1
f 79/28/1 139/27/1 77/29/1 14/30/1
f 21/31/1 72/32/1 140/33/1 82/34/1
f 72/32/1 22/25/1 79/28/1 140/33/1
f 140/33/1 79/28/1 14/30/1 67/35/1
f 82/34/1 140/33/1 67/35/1 13/36/1
f 19/21/1 71/37/1 141/38/1 57/22/1
f 71/37/1 20/39/1 55/40/1 141/38/1
f 141/38/1 55/40/1 12/41/1 66/42/1
f 57/22/1 141/38/1 66/42/1 4/23/1
f 20/39/1 70/43/1 142/44/1 55/40/1
f 70/43/1 21/31/1 82/34/1 142/44/1
f 142/44/1 82/34/1 13/36/1 78/45/1
f 55/40/1 142/44/1 78/45/1 12/41/1
f 6/46/1 90/47/1 143/48/1 59/49/1
f 90/47/1 27/50/1 84/51/1 143/48/1
f 143/48/1 84/51/1 26/52/1 91/53/1
f 59/49/1 143/48/1 91/53/1 5/54/1
f 11/55/1 92/56/1 144/57/1 64/58/1
f 92/56/1 32/59/1 89/60/1 144/57/1
f 144/57/1 89/60/1 31/61/1 93/62/1
f 64/58/1 144/57/1 93/62/1 10/63/1
f 9/64/1 94/65/1 145/66/1 62/67/1
f 94/65/1 30/68/1 87/69/1 145/66/1
f 145/66/1 87/69/1 29/70/1 95/71/1
f 62/67/1 145/66/1 95/71/1 8/72/1
f 7/73/1 96/74/1 146/75/1 60/76/1
f 96/74/1 28/77/1 85/78/1 146/75/1
f 146/75/1 85/78/1 27/50/1 90/47/1
f 60/76/1 146/75/1 90/47/1 6/46/1
f 5/54/1 91/53/1 147/79/1 58/80/1
f 91/53/1 26/52/1 83/81/1 147/79/1
f 147/79/1 83/81/1 25/82/1 97/83/1
f 58/80/1 147/79/1 97/83/1 3/84/1
f 10/63/1 93/62/1 148/85/1 63/86/1
f 93/62/1 31/61/1 88/87/1 148/85/1
f 148/85/1 88/87/1 30/68/1 94/65/1
f 63/86/1 148/85/1 94/65/1 9/64/1
f 8/72/1 95/71/1 149/88/1 61/89/1
f 95/71/1 29/70/1 86/90/1 149/88/1
f 149/88/1 86/90/1 28/77/1 96/74/1
f 61/89/1 149/88/1 96/74/1 7/73/1
f 39/91/1 135/92/1 150/93/1 98/94/1
f 135/92/1 46/95/1 99/96/1 150/93/1
f 150/93/1 99/96/1 26/52/1 84/97/1
f 98/94/1 150/93/1 84/97/1 27/50/1
f 46/95/1 128/98/1 151/99/1 99/96/1
f 128/98/1 53/100/1 100/101/1 151/99/1
f 151/99/1 100/101/1 25/82/1 83/81/1
f 99/96/1 151/99/1 83/81/1 26/52/1
f 15/9/1 80/8/1 152/102/1 108/103/1
f 80/8/1 16/7/1 115/104/1 152/102/1
f 152/102/1 115/104/1 47/105/1 122/106/1
f 108/103/1 152/102/1 122/106/1 40/107/1
f 40/107/1 122/106/1 153/108/1 109/109/1
f 122/106/1 47/105/1 116/110/1 153/108/1
f 153/108/1 116/110/1 48/111/1 123/112/1
f 109/109/1 153/108/1 123/112/1 41/113/1
f 41/113/1 123/112/1 154/114/1 110/115/1
f 123/112/1 48/111/1 117/116/1 154/114/1
f 154/114/1 117/116/1 49/117/1 124/118/1
f 110/115/1 154/114/1 124/118/1 42/119/1
f 42/119/1 124/118/1 155/120/1 111/121/1
f 124/118/1 49/117/1 118/122/1 155/120/1
f 155/120/1 118/122/1 50/123/1 125/124/1
f 111/121/1 155/120/1 125/124/1 43/125/1
f 43/125/1 125/124/1 156/126/1 112/127/1
f 125/124/1 50/123/1 119/128/1 156/126/1
f 156/126/1 119/128/1 51/129/1 126/130/1
f 112/127/1 156/126/1 126/130/1 44/131/1
f 44/131/1 126/130/1 157/132/1 113/133/1
f 126/130/1 51/129/1 120/134/1 157/132/1
f 157/132/1 120/134/1 52/135/1 127/136/1
f 113/133/1 157/132/1 127/136/1 45/137/1
f 45/137/1 127/136/1 158/138/1 114/139/1
f 127/136/1 52/135/1 121/140/1 158/138/1
f 158/138/1 121/140/1 53/100/1 128/98/1
f 114/139/1 158/138/1 128/98/1 46/95/1
f 14/30/1 77/29/1 159/141/1 101/142/1
f 77/29/1 15/9/1 108/103/1 159/141/1
f 159/141/1 108/103/1 40/107/1 129/143/1
f 101/142/1 159/141/1 129/143/1 33/144/1
f 33/144/1 129/143/1 160/145/1 102/146/1
f 129/143/1 40/107/1 109/109/1 160/145/1
f 160/145/1 109/109/1 41/113/1 130/147/1
f 102/146/1 160/145/1 130/147/1 34/148/1
f 34/148/1 130/147/1 161/149/1 103/150/1
f 130/147/1 41/113/1 110/115/1 161/149/1
f 161/149/1 110/115/1 42/119/1 131/151/1
f 103/150/1 161/149/1 131/151/1 35/152/1
f 35/152/1 131/151/1 162/153/1 104/154/1
f 131/151/1 42/119/1 111/121/1 162/153/1
f 162/153/1 111/121/1 43/125/1 132/155/1
f 104/154/1 162/153/1 132/155/1 36/156/1
f 36/156/1 132/155/1 163/157/1 105/158/1
f 132/155/1 43/125/1 112/127/1 163/157/1
f 163/157/1 112/127/1 44/131/1 133/159/1
f 105/158/1 163/157/1 133/159/1 37/160/1
f 37/160/1 133/159/1 164/161/1 106/162/1
f 133/159/1 44/131/1 113/133/1 164/161/1
f 164/161/1 113/133/1 45/137/1 134/163/1
f 106/162/1 164/161/1 134/163/1 38/164/1
f 38/164/1 134/163/1 165/165/1 107/166/1
f 134/163/1 45/137/1 114/139/1 165/165/1
f 165/165/1 114/139/1 46/95/1 135/92/1
f 107/166/1 165/165/1 135/92/1 39/91/1
