# Blender 4.1.0
# www.blender.org
o Cube.300
v 0.126387 -0.065000 -0.062259
v 0.116390 -0.075000 -0.062477
v 0.116608 -0.065000 -0.072475
v -0.113555 -0.075000 -0.067492
v -0.123553 -0.065000 -0.067710
v -0.113337 -0.065000 -0.077489
v 0.126387 0.065000 -0.062259
v 0.116608 0.065000 -0.072475
v 0.116390 0.075000 -0.062477
v -0.123553 0.065000 -0.067710
v -0.113556 0.075000 -0.067492
v -0.113337 0.065000 -0.077489
v 0.123553 -0.065000 0.067710
v 0.113337 -0.065000 0.077489
v 0.113556 -0.075000 0.067492
v -0.126387 -0.065000 0.062259
v -0.116390 -0.075000 0.062477
v -0.116608 -0.065000 0.072475
v 0.123553 0.065000 0.067710
v 0.113555 0.075000 0.067492
v 0.113337 0.065000 0.077489
v -0.126387 0.065000 0.062259
v -0.116608 0.065000 0.072475
v -0.116390 0.075000 0.062477
vn -0.0000 -1.0000 -0.0000
vn -0.0218 -0.0000 0.9998
vn -0.9998 -0.0000 -0.0218
vn 0.0218 -0.0000 -0.9998
vn -0.0000 1.0000 -0.0000
vn 0.5898 -0.5773 -0.5646
vn -0.5646 -0.5774 -0.5898
vn 0.5898 0.5774 -0.5646
vn -0.5646 0.5773 -0.5898
vn 0.5646 -0.5773 0.5898
vn -0.5898 -0.5774 0.5646
vn 0.5646 0.5774 0.5898
vn -0.5898 0.5773 0.5646
vn 0.7224 -0.0000 -0.6915
vn 0.0154 -0.7071 -0.7069
vn -0.6915 -0.0000 -0.7224
vn 0.0154 0.7071 -0.7069
vn 0.7069 0.7071 0.0154
vn -0.7069 0.7071 -0.0154
vn -0.0154 0.7071 0.7069
vn 0.6915 -0.0000 0.7224
vn -0.7224 -0.0000 0.6915
vn -0.0154 -0.7071 0.7069
vn 0.7069 -0.7071 0.0154
vn -0.7069 -0.7071 -0.0154
vn 0.9998 -0.0000 0.0218
vt 0.515902 0.142184
vt 0.708760 0.142184
vt 0.708760 0.232309
vt 0.515902 0.232309
vt 0.703170 0.232309
vt 0.521492 0.232309
vt 0.521492 0.142184
vt 0.703170 0.142184
vt 0.515902 0.142184
vt 0.708760 0.142184
vt 0.521492 0.232309
vt 0.521492 0.239241
vt 0.507517 0.232309
vt 0.521492 0.135252
vt 0.507517 0.142184
vt 0.521492 0.142184
vt 0.507517 0.232309
vt 0.703170 0.232309
vt 0.717146 0.232309
vt 0.703170 0.239241
vt 0.703170 0.135252
vt 0.717146 0.142184
vt 0.703170 0.142184
vt 0.717146 0.142184
vt 0.703170 0.239241
vt 0.708760 0.239241
vt 0.515902 0.239241
vt 0.515902 0.135252
vt 0.708760 0.135252
s 1
f 15/1/1 17/2/1 4/3/1 2/4/1
f 21/1/2 23/2/2 18/3/2 14/4/2
f 22/5/3 10/6/3 5/7/3 16/8/3
f 3/3/4 6/4/4 12/9/4 8/10/4
f 9/3/5 11/4/5 24/9/5 20/10/5
f 1/11/6 2/12/6 3/13/6
f 4/14/7 5/7/7 6/15/7
f 7/16/8 8/15/8 9/14/8
f 10/6/9 11/12/9 12/17/9
f 13/18/10 14/19/10 15/20/10
f 16/8/11 17/21/11 18/22/11
f 19/23/12 20/21/12 21/24/12
f 22/5/13 23/19/13 24/25/13
f 7/16/14 1/11/14 3/13/14 8/15/14
f 2/4/15 4/3/15 6/26/15 3/27/15
f 5/7/16 10/6/16 12/13/16 6/15/16
f 11/4/17 9/3/17 8/26/17 12/27/17
f 19/23/18 7/16/18 9/14/18 20/21/18
f 10/6/19 22/5/19 24/25/19 11/12/19
f 23/2/20 21/1/20 20/28/20 24/29/20
f 13/18/21 19/23/21 21/22/21 14/19/21
f 22/5/22 16/8/22 18/22/22 23/19/22
f 17/26/23 15/27/23 14/4/23 18/3/23
f 1/11/24 13/18/24 15/25/24 2/12/24
f 16/8/25 5/7/25 4/14/25 17/21/25
f 7/16/26 19/23/26 13/18/26 1/11/26
