# Blender 4.1.0
# www.blender.org
o OuterWall
v -2.073735 0.006489 -0.716995
v -2.073735 1.378872 0.783005
v -2.073735 0.006489 0.783005
v -2.073735 1.378872 -0.716995
v -2.573735 0.006489 0.033005
v -1.573735 0.878872 0.033005
v -2.573735 0.878872 0.033005
v -1.573735 0.006489 0.033005
v -2.073735 0.692680 -0.716995
v -2.073735 0.476264 0.783005
v -1.573735 0.442680 0.033005
v -2.573735 0.442680 0.033005
v -1.913792 0.006489 0.783005
v -1.913792 1.218929 0.783005
v -1.913792 0.468682 0.783005
v -2.220659 1.231949 0.783005
v -2.220659 0.006489 0.783005
v -2.220659 0.475191 0.783005
v -2.073735 0.933100 -0.716995
v -2.073735 0.726774 0.783005
v -1.573735 0.595508 0.033005
v -2.573735 0.595508 0.033005
v -1.913792 0.731545 0.783005
v -2.220659 0.740335 0.783005
v -1.573735 0.878872 -0.651995
v -1.638735 0.943872 -0.716995
v -1.582444 0.887581 -0.684495
v -1.606235 0.911372 -0.708287
v -1.638735 0.006489 -0.716995
v -1.573735 0.006489 -0.651995
v -1.606235 0.006489 -0.708287
v -1.582444 0.006489 -0.684495
v -1.638735 0.943872 0.783005
v -1.573735 0.878872 0.718005
v -1.606235 0.911372 0.774297
v -1.582444 0.887581 0.750505
v -1.573735 0.006489 0.718005
v -1.638735 0.006489 0.783005
v -1.582444 0.006489 0.750505
v -1.606235 0.006489 0.774297
v -2.508735 0.943872 -0.716995
v -2.573735 0.878872 -0.651995
v -2.541235 0.911372 -0.708287
v -2.565027 0.887581 -0.684495
v -2.573735 0.006489 -0.651995
v -2.508735 0.006489 -0.716995
v -2.565027 0.006489 -0.684495
v -2.541235 0.006489 -0.708287
v -2.573735 0.878872 0.718005
v -2.508735 0.943872 0.783005
v -2.565027 0.887581 0.750505
v -2.541235 0.911372 0.774297
v -2.508735 0.006489 0.783005
v -2.573735 0.006489 0.718005
v -2.541235 0.006489 0.774297
v -2.565027 0.006489 0.750505
v -1.638735 0.475180 -0.716995
v -1.573735 0.442680 -0.651995
v -1.606235 0.458930 -0.708287
v -1.582444 0.447035 -0.684495
v -2.508735 0.448666 0.783005
v -2.573735 0.442680 0.718005
v -2.541235 0.445673 0.774297
v -2.565027 0.443482 0.750505
v -1.573735 0.442680 0.718005
v -1.638735 0.447650 0.783005
v -1.582444 0.443346 0.750505
v -1.606235 0.445165 0.774297
v -2.573735 0.442680 -0.651995
v -2.508735 0.475180 -0.716995
v -2.565027 0.447035 -0.684495
v -2.541235 0.458930 -0.708287
v -2.573735 0.595508 0.718005
v -2.508735 0.622170 0.783005
v -2.565027 0.599080 0.750505
v -2.541235 0.608839 0.774297
v -1.638735 0.639395 -0.716995
v -1.573735 0.595508 -0.651995
v -1.606235 0.617452 -0.708287
v -1.582444 0.601388 -0.684495
v -1.573735 0.595508 0.718005
v -1.638735 0.621511 0.783005
v -1.582444 0.598992 0.750505
v -1.606235 0.608510 0.774297
v -2.573735 0.595508 -0.651995
v -2.508735 0.639395 -0.716995
v -2.565027 0.601388 -0.684495
v -2.541235 0.617452 -0.708287
vn -0.0000 -0.0000 -1.0000
vn -0.0000 -0.0000 1.0000
vn -1.0000 -0.0000 -0.0000
vn 1.0000 -0.0000 -0.0000
vn 0.9901 -0.0000 -0.1403
vn 0.0662 -0.0000 -0.9978
vn 0.8310 -0.0000 -0.5563
vn 0.4000 -0.0000 -0.9165
vn 0.1305 -0.0000 -0.9914
vn 0.9914 -0.0000 -0.1305
vn 0.5000 -0.0000 -0.8660
vn 0.8660 -0.0000 -0.5000
vn 0.0662 -0.0000 0.9978
vn 0.9901 -0.0000 0.1403
vn 0.4000 -0.0000 0.9165
vn 0.8310 -0.0000 0.5563
vn 0.9914 -0.0000 0.1305
vn 0.1305 -0.0000 0.9914
vn 0.8660 -0.0000 0.5000
vn 0.5000 -0.0000 0.8660
vn -0.0662 -0.0000 -0.9978
vn -0.9901 -0.0000 -0.1403
vn -0.4000 -0.0000 -0.9165
vn -0.8310 -0.0000 -0.5563
vn -0.9914 -0.0000 -0.1305
vn -0.1305 -0.0000 -0.9914
vn -0.8660 -0.0000 -0.5000
vn -0.5000 -0.0000 -0.8660
vn -0.9901 -0.0000 0.1403
vn -0.0662 -0.0000 0.9978
vn -0.8310 -0.0000 0.5563
vn -0.4000 -0.0000 0.9165
vn -0.1305 -0.0000 0.9914
vn -0.9914 -0.0000 0.1305
vn -0.5000 -0.0000 0.8660
vn -0.8660 -0.0000 0.5000
vt 0.150566 1.312936
vt 0.000217 1.312936
vt 0.000217 1.082352
vt 0.150566 1.082352
vt 0.161772 0.941619
vt 0.253163 0.941619
vt 0.212433 1.038592
vt 0.152629 1.038592
vt 0.300915 0.471388
vt 0.203243 0.471388
vt 0.203243 0.240804
vt 0.300915 0.240804
vt 0.300915 1.543521
vt 0.203243 1.543521
vt 0.203243 1.312936
vt 0.300915 1.312936
vt 0.218371 1.587281
vt 0.323319 1.587281
vt 0.473257 1.733711
vt 0.319606 1.733711
vt 0.250133 0.838322
vt 0.418127 0.838322
vt 0.473257 0.892162
vt 0.248489 0.892162
vt 0.203243 1.082352
vt 0.300915 1.082352
vt 0.300915 0.701972
vt 0.203243 0.701972
vt 0.000217 0.941619
vt 0.000217 1.038592
vt 0.161768 1.587281
vt 0.236737 1.733711
vt 0.203243 1.082352
vt 0.000217 0.838322
vt 0.159528 0.838322
vt 0.162142 0.892162
vt 0.000217 0.892162
vt 0.150566 1.543521
vt 0.000217 1.543521
vt 0.150566 0.471388
vt 0.000217 0.471388
vt 0.000217 0.240804
vt 0.150566 0.240804
vt 0.236737 0.050614
vt 0.319606 0.050614
vt 0.218370 0.197043
vt 0.161768 0.197043
vt 0.150566 0.701972
vt 0.000217 0.701972
vt 0.000217 0.745733
vt 0.152279 0.745733
vt 0.422615 0.941619
vt 0.150566 0.701972
vt 0.000217 0.050614
vt 0.161768 0.197043
vt 0.000217 0.197043
vt 0.212206 0.745733
vt 0.323319 0.745733
vt 0.000217 1.587281
vt 0.161768 1.587281
vt 0.000217 1.733711
vt 0.203243 1.543521
vt 0.150566 0.240804
vt 0.323319 1.038592
vt 0.212433 1.038592
vt 0.152279 0.745733
vt 0.212206 0.745733
vt 0.000217 0.229864
vt 0.152066 0.229864
vt 0.000217 0.207983
vt 0.156167 0.207983
vt 0.312117 1.049532
vt 0.207838 1.049532
vt 0.303916 1.071412
vt 0.204474 1.071412
vt 0.000217 0.734793
vt 0.151422 0.734793
vt 0.000217 0.712912
vt 0.150795 0.712912
vt 0.000217 1.576341
vt 0.156167 1.576341
vt 0.000217 1.554461
vt 0.152067 1.554461
vt 0.205270 0.229864
vt 0.210807 0.207983
vt 0.151597 1.049532
vt 0.000217 1.049532
vt 0.150842 1.071412
vt 0.000217 1.071412
vt 0.207725 0.734793
vt 0.204444 0.712912
vt 0.210807 1.576341
vt 0.205270 1.554461
vt 0.303916 0.229864
vt 0.312117 0.207983
vt 0.323319 0.197043
vt 0.312117 0.734793
vt 0.303916 0.712912
vt 0.312117 1.576341
vt 0.303916 1.554461
vt 0.473257 0.050614
s 1
f 12/1/3 5/2/3 54/3/34 62/4/34
f 18/5/2 24/6/2 74/7/33 61/8/33
f 6/9/4 21/10/4 78/11/10 25/12/5
f 42/13/22 85/14/25 22/15/3 7/16/3
f 86/17/26 41/18/21 4/19/1 19/20/1
f 23/21/2 14/22/2 2/23/2 20/24/2
f 7/16/3 22/15/3 73/25/34 49/26/29
f 34/27/14 81/28/17 21/10/4 6/9/4
f 17/29/2 18/5/2 61/8/33 53/30/33
f 70/31/26 86/17/26 19/20/1 9/32/1
f 22/15/3 12/1/3 62/4/34 73/33/34
f 13/34/2 15/35/2 10/36/2 3/37/2
f 69/38/25 45/39/25 5/2/3 12/1/3
f 11/40/4 8/41/4 30/42/10 58/43/10
f 9/44/1 19/45/1 77/46/9 57/47/9
f 65/48/17 37/49/17 8/41/4 11/40/4
f 38/50/18 66/51/18 15/35/2 13/34/2
f 3/37/2 10/36/2 18/5/2 17/29/2
f 20/24/2 2/23/2 16/52/2 24/6/2
f 81/28/17 65/53/17 11/40/4 21/10/4
f 1/54/1 9/44/1 57/55/9 29/56/9
f 82/57/18 33/58/13 14/22/2 23/21/2
f 46/59/26 70/60/26 9/32/1 1/61/1
f 85/62/25 69/38/25 12/1/3 22/15/3
f 21/10/4 11/40/4 58/63/10 78/11/10
f 24/6/2 16/52/2 50/64/30 74/65/33
f 66/66/18 82/67/18 23/21/2 15/35/2
f 58/43/10 30/42/10 32/68/12 60/69/12
f 60/69/12 32/68/12 31/70/11 59/71/11
f 59/71/11 31/70/11 29/56/9 57/55/9
f 74/65/33 50/64/30 52/72/32 76/73/35
f 76/73/35 52/72/32 51/74/31 75/75/36
f 75/75/36 51/74/31 49/26/29 73/25/34
f 66/51/18 38/50/18 40/76/20 68/77/20
f 68/77/20 40/76/20 39/78/19 67/79/19
f 67/79/19 39/78/19 37/49/17 65/48/17
f 70/60/26 46/59/26 48/80/28 72/81/28
f 72/81/28 48/80/28 47/82/27 71/83/27
f 71/83/27 47/82/27 45/39/25 69/38/25
f 78/11/10 58/63/10 60/69/12 80/84/12
f 80/84/12 60/69/12 59/71/11 79/85/11
f 79/85/11 59/71/11 57/47/9 77/46/9
f 53/30/33 61/8/33 63/86/35 55/87/35
f 55/87/35 63/86/35 64/88/36 56/89/36
f 56/89/36 64/88/36 62/4/34 54/3/34
f 82/67/18 66/66/18 68/77/20 84/90/20
f 84/90/20 68/77/20 67/79/19 83/91/19
f 83/91/19 67/79/19 65/53/17 81/28/17
f 86/17/26 70/31/26 72/81/28 88/92/28
f 88/92/28 72/81/28 71/83/27 87/93/27
f 87/93/27 71/83/27 69/38/25 85/62/25
f 61/8/33 74/7/33 76/73/35 63/86/35
f 63/86/35 76/73/35 75/75/36 64/88/36
f 64/88/36 75/75/36 73/33/34 62/4/34
f 25/12/5 78/11/10 80/84/12 27/94/7
f 27/94/7 80/84/12 79/85/11 28/95/8
f 28/95/8 79/85/11 77/46/9 26/96/6
f 33/58/13 82/57/18 84/90/20 35/97/15
f 35/97/15 84/90/20 83/91/19 36/98/16
f 36/98/16 83/91/19 81/28/17 34/27/14
f 41/18/21 86/17/26 88/92/28 43/99/23
f 43/99/23 88/92/28 87/93/27 44/100/24
f 44/100/24 87/93/27 85/14/25 42/13/22
f 19/45/1 4/101/1 26/96/6 77/46/9
o Dachziegel
v -1.450083 0.755220 -0.788317
v -1.450083 0.755220 0.859050
v -2.697387 0.755220 -0.788317
v -2.697387 0.755220 0.860842
v -2.697387 0.755220 0.045089
v -1.795814 1.100951 -0.788317
v -1.795814 1.100951 0.859050
v -2.135617 0.754593 -0.313644
v -1.370653 0.754593 -0.313644
v -2.135617 0.754593 0.379654
v -1.370653 0.754593 0.379654
v -2.135617 1.101242 0.033005
v -2.051461 1.356598 0.860698
v -2.096009 1.356598 0.860842
v -2.065583 1.364751 0.860770
v -2.081888 1.364751 0.860822
v -2.096009 1.356598 -0.788317
v -2.051461 1.356598 -0.788317
v -2.081888 1.364751 -0.788317
v -2.065583 1.364751 -0.788317
v -1.450083 0.755220 -0.351510
v -1.411177 0.754913 -0.313276
v -1.444871 0.755179 -0.332264
v -1.430630 0.755067 -0.318269
v -1.411177 0.754913 0.379286
v -1.450083 0.755220 0.417520
v -1.430630 0.755067 0.384279
v -1.444871 0.755179 0.398274
v -2.096009 1.356598 0.045089
v -2.051461 1.356598 0.044121
v -2.081888 1.364751 0.044959
v -2.065582 1.364751 0.044605
v -1.734992 1.078718 0.010732
v -1.834379 1.139516 0.033005
v -1.734992 1.078718 0.055278
v -1.768708 1.093607 0.019993
v -1.734997 1.086346 0.024969
v -1.767544 1.095817 0.028829
v -1.805054 1.115841 0.037872
v -1.805054 1.115841 0.028138
v -1.789994 1.105596 0.033005
v -1.734997 1.086346 0.041041
v -1.768708 1.093607 0.046017
v -1.767543 1.095817 0.037181
v -1.370653 1.078968 0.010731
v -1.370653 1.078968 0.055279
v -1.370653 1.087121 0.024852
v -1.370653 1.087121 0.041158
vn 0.7071 0.7071 -0.0000
vn -0.7071 0.7071 -0.0000
vn -0.0005 0.7071 -0.7071
vn -0.0005 0.7071 0.7071
vn 0.2486 0.8864 -0.3905
vn 0.4711 0.8811 -0.0412
vn 0.6072 0.7945 -0.0000
vn 0.4711 0.8811 0.0412
vn 0.2486 0.8864 0.3905
vn 0.2794 0.9602 -0.0000
vn 0.3993 0.9168 -0.0000
vn -0.5000 0.8660 -0.0000
vn -0.0000 1.0000 -0.0000
vn 0.5000 0.8660 -0.0000
vn 0.1712 0.7769 -0.6059
vn 0.4079 0.8162 -0.4092
vn 0.6053 0.7771 -0.1722
vn -0.0013 0.8738 -0.4863
vn -0.0021 1.0000 -0.0000
vn -0.0013 0.8738 0.4863
vn 0.6053 0.7771 0.1722
vn 0.4079 0.8162 0.4092
vn 0.1712 0.7769 0.6059
vt 0.646171 0.619889
vt 0.501728 0.614748
vt 0.501728 0.237084
vt 0.671831 0.237846
vt 0.501728 0.999748
vt 0.901876 0.999748
vt 0.901876 0.614300
vt 0.501728 0.614300
vt 0.901876 0.999748
vt 0.671831 0.999748
vt 0.646171 0.619889
vt 0.901876 0.797726
vt 0.501728 0.999748
vt 0.646171 0.619889
vt 0.741179 0.792995
vt 0.740932 0.811737
vt 0.525426 0.961295
vt 0.525345 0.792790
vt 0.741180 0.792775
vt 0.525345 0.792775
vt 0.525428 0.961281
vt 0.740951 0.811518
vt 0.901876 0.442052
vt 0.646171 0.619889
vt 0.901876 0.237846
vt 0.517393 0.976880
vt 0.513718 0.976339
vt 0.518153 0.961292
vt 0.510621 0.989411
vt 0.510621 0.989230
vt 0.671831 0.619889
vt 0.672092 0.619708
vt 0.517394 0.976873
vt 0.513718 0.976336
vt 0.510882 0.989230
vt 0.518154 0.961285
vt 0.510940 0.976338
vt 0.494317 0.614360
vt 0.494317 0.999748
vt 0.494317 0.614524
vt 0.494317 0.999748
vt 0.742533 0.820734
vt 0.740695 0.829730
vt 0.901876 0.779880
vt 0.501728 0.614300
vt 0.501728 0.237017
vt 0.494317 0.237026
vt 0.494317 0.237051
vt 0.517935 0.792784
vt 0.517935 0.792776
vt 0.901876 0.459899
vt 0.740731 0.829512
vt 0.742561 0.820514
vt 0.901876 0.237018
s 0
f 122/102/37 118/103/37 101/104/37 95/105/37
f 105/106/38 91/107/38 93/108/38 117/109/38
f 89/110/37 94/111/37 122/112/37 109/113/37
f 94/111/37 106/114/37 118/103/37 122/115/37
f 97/116/39 110/117/39 121/118/39 133/119/39
f 99/120/40 134/121/40 123/122/40 113/123/40
f 114/124/37 122/125/37 95/105/37 90/126/37
f 121/118/41 124/127/41 126/128/41 125/129/41
f 124/127/42 128/130/42 129/131/42 126/128/42
f 122/125/43 127/132/43 129/133/43 128/132/43
f 127/130/44 131/134/44 132/135/44 129/136/44
f 123/122/45 130/137/45 132/135/45 131/134/45
f 130/137/46 125/129/46 126/128/46 132/135/46
f 126/138/47 129/136/47 132/135/47
f 105/106/48 117/109/48 119/139/48 107/140/48
f 107/140/49 119/139/49 120/141/49 108/142/49
f 108/142/50 120/141/50 118/103/50 106/114/50
f 121/118/51 110/117/51 112/143/51 124/127/51
f 124/127/52 112/143/52 111/144/52 128/130/52
f 128/132/53 111/145/53 109/113/53 122/112/53
f 117/146/48 102/147/48 104/148/48 119/139/48
f 119/139/49 104/148/49 103/149/49 120/141/49
f 120/141/50 103/149/50 101/104/50 118/103/50
f 133/119/54 121/118/54 125/129/54 135/150/54
f 135/150/55 125/129/55 130/137/55 136/151/55
f 136/151/56 130/137/56 123/122/56 134/121/56
f 122/125/57 114/124/57 116/152/57 127/132/57
f 127/130/58 116/153/58 115/154/58 131/134/58
f 131/134/59 115/154/59 113/123/59 123/122/59
f 117/146/38 93/108/38 92/155/38 102/147/38
l 100 96
l 98 100
l 133 100
o Plane.007
v -2.219078 0.483530 0.753124
v -1.928393 0.483530 0.753124
v -2.219078 0.774215 0.753124
v -1.928393 0.774215 0.753124
vn -0.0000 -0.0000 1.0000
vt 0.875907 0.002083
vt 0.998400 0.002083
vt 0.998400 0.124576
vt 0.875907 0.124576
s 0
f 137/156/60 138/157/60 140/158/60 139/159/60
