# Blender 4.1.0
# www.blender.org
o Cylinder.026
v 0.525235 0.880091 -0.285199
v 0.550739 0.889321 -0.284207
v 0.564310 0.912691 -0.281695
v 0.559597 0.939267 -0.278839
v 0.533682 0.919136 -0.060013
v 0.538806 0.956613 -0.276974
v 0.511664 0.956613 -0.276974
v 0.503845 0.908339 -0.061173
v 0.490873 0.939267 -0.278839
v 0.486160 0.912691 -0.281695
v 0.499730 0.889321 -0.284207
v 0.525235 0.869656 -0.266023
v 0.525235 0.898065 -0.530335
v 0.556092 0.880822 -0.264823
v 0.556092 0.909231 -0.529135
v 0.572510 0.909097 -0.261784
v 0.572510 0.937506 -0.526096
v 0.566808 0.941250 -0.258328
v 0.566808 0.969659 -0.522640
v 0.541653 0.962236 -0.256072
v 0.541653 0.990646 -0.520384
v 0.508816 0.962236 -0.256072
v 0.508816 0.990646 -0.520384
v 0.483662 0.941250 -0.258328
v 0.483662 0.969659 -0.522640
v 0.477960 0.909097 -0.261784
v 0.477960 0.937506 -0.526096
v 0.494378 0.880822 -0.264823
v 0.494378 0.909231 -0.529135
v 0.525235 0.888547 -0.521149
v 0.525235 0.895904 -0.642339
v 0.561543 0.901687 -0.519737
v 0.565167 0.910354 -0.640786
v 0.580863 0.934957 -0.516161
v 0.586414 0.946945 -0.636853
v 0.574153 0.972791 -0.512094
v 0.579035 0.988555 -0.632380
v 0.544554 0.997485 -0.509440
v 0.546482 1.015713 -0.629461
v 0.505916 0.997485 -0.509440
v 0.503988 1.015713 -0.629461
v 0.476317 0.972791 -0.512094
v 0.471435 0.988555 -0.632380
v 0.469607 0.934957 -0.516161
v 0.464056 0.946945 -0.636853
v 0.488927 0.901687 -0.519737
v 0.485303 0.910354 -0.640786
v 0.525235 0.871503 -0.065133
v 0.541111 0.877248 -0.064515
v 0.549558 0.891796 -0.062952
v 0.546624 0.908339 -0.061173
v 0.516788 0.919136 -0.060013
v 0.500912 0.891796 -0.062952
v 0.509359 0.877248 -0.064515
v 0.525231 0.868274 -0.261793
v 0.525232 0.873140 -0.374092
v 0.556680 0.879654 -0.260570
v 0.561284 0.886187 -0.372690
v 0.573413 0.908472 -0.257473
v 0.580467 0.919223 -0.369139
v 0.567602 0.941241 -0.253950
v 0.573805 0.956790 -0.365101
v 0.541965 0.962630 -0.251651
v 0.544415 0.981311 -0.362466
v 0.508498 0.962630 -0.251651
v 0.506048 0.981311 -0.362466
v 0.482861 0.941241 -0.253950
v 0.476658 0.956790 -0.365101
v 0.477049 0.908472 -0.257473
v 0.469996 0.919223 -0.369139
v 0.493783 0.879654 -0.260570
v 0.489179 0.886187 -0.372690
v 0.241564 0.595520 -0.150298
v 0.445797 0.595520 -0.150298
v 0.241564 0.799753 -0.150298
v 0.445797 0.799753 -0.150298
v 0.220209 0.595520 -0.123297
v 0.467150 0.595520 -0.123297
v 0.220209 0.595520 -0.168417
v 0.467150 0.595520 -0.168417
v 0.220209 0.574756 -0.123298
v 0.467150 0.574756 -0.123298
v 0.496088 0.572208 -0.156366
v 0.704116 0.569367 -0.156222
v 0.504811 0.821683 -0.168979
v 0.712753 0.820740 -0.168931
vn -0.0000 -0.9992 -0.0390
vn 0.6413 -0.7672 -0.0141
vn 0.9825 -0.1795 0.0491
vn 0.8640 0.4887 0.1209
vn 0.3412 0.9249 0.1678
vn -0.3412 0.9249 0.1678
vn -0.8640 0.4887 0.1209
vn -0.9825 -0.1795 0.0491
vn -0.0000 -0.1069 0.9943
vn -0.6413 -0.7672 -0.0140
vn -0.0000 -0.9943 -0.1069
vn 0.6428 -0.7617 -0.0819
vn 0.9848 -0.1727 -0.0186
vn 0.8660 0.4971 0.0534
vn 0.3420 0.9343 0.1004
vn -0.3420 0.9343 0.1004
vn -0.8660 0.4971 0.0534
vn -0.9848 -0.1727 -0.0186
vn -0.6428 -0.7617 -0.0819
vn -0.0000 -0.9982 -0.0606
vn 0.6421 -0.7658 -0.0356
vn 0.9837 -0.1774 0.0276
vn 0.8651 0.4916 0.0995
vn 0.3417 0.9283 0.1465
vn -0.3417 0.9283 0.1465
vn -0.8651 0.4916 0.0995
vn -0.9837 -0.1774 0.0276
vn -0.6421 -0.7658 -0.0356
vn 0.3414 -0.9390 -0.0407
vn 0.8645 -0.5026 0.0062
vn 0.9830 0.1659 0.0781
vn 0.6416 0.7539 0.1413
vn -0.0000 0.9861 0.1662
vn -0.6416 0.7539 0.1413
vn -0.9830 0.1659 0.0781
vn -0.0000 0.1069 -0.9943
vn -0.8645 -0.5026 0.0062
vn -0.3414 -0.9390 -0.0407
vn -0.0000 -0.0000 1.0000
vn -0.0000 1.0000 -0.0000
vn -0.0000 0.0505 0.9987
vt 0.258767 0.347191
vt 0.429557 0.319128
vt 0.432525 0.340251
vt 0.260614 0.360339
vt 0.434507 0.361489
vt 0.261848 0.373559
vt 0.435499 0.382796
vt 0.262466 0.386822
vt 0.435499 0.404126
vt 0.262466 0.400099
vt 0.434507 0.425433
vt 0.261848 0.413363
vt 0.432525 0.446671
vt 0.260614 0.426583
vt 0.429557 0.467793
vt 0.258767 0.439731
vt 0.348568 0.292650
vt 0.379641 0.274710
vt 0.414976 0.280940
vt 0.438039 0.308426
vt 0.438039 0.344306
vt 0.414976 0.371792
vt 0.379641 0.378022
vt 0.348568 0.360082
vt 0.336297 0.326366
vt 0.425610 0.488755
vt 0.256310 0.452779
vt 0.256310 0.334142
vt 0.425610 0.298166
vt 0.491884 0.463278
vt 0.008660 0.463278
vt 0.008660 0.443265
vt 0.491884 0.443265
vt 0.008660 0.423251
vt 0.491884 0.423251
vt 0.008660 0.403237
vt 0.491884 0.403237
vt 0.008660 0.383223
vt 0.491884 0.383223
vt 0.008660 0.363210
vt 0.491884 0.363209
vt 0.008660 0.343196
vt 0.491884 0.343196
vt 0.008660 0.323182
vt 0.491884 0.323182
vt 0.008660 0.303168
vt 0.491884 0.303168
vt 0.491884 0.483292
vt 0.008660 0.483292
vt 0.000092 0.382883
vt 0.019693 0.359525
vt 0.049722 0.354230
vt 0.076129 0.369476
vt 0.086558 0.398130
vt 0.076129 0.426783
vt 0.049722 0.442030
vt 0.019693 0.436735
vt 0.000092 0.413376
vt 0.100307 0.262860
vt 0.084592 0.122073
vt 0.133949 0.117356
vt 0.145185 0.258571
vt 0.183430 0.114208
vt 0.190177 0.255709
vt 0.232987 0.112634
vt 0.235237 0.254278
vt 0.282569 0.112634
vt 0.280319 0.254278
vt 0.332126 0.114208
vt 0.325379 0.255709
vt 0.381607 0.117356
vt 0.370371 0.258571
vt 0.430964 0.122073
vt 0.415249 0.262860
vt 0.480146 0.128355
vt 0.459968 0.268572
vt 0.055588 0.268572
vt 0.035410 0.128355
vt 0.123444 0.036353
vt 0.123444 0.070524
vt 0.101479 0.096701
vt 0.067827 0.102635
vt 0.038233 0.085549
vt 0.026546 0.053439
vt 0.038233 0.021328
vt 0.067827 0.004242
vt 0.101479 0.010176
vt 0.409085 0.114590
vt 0.409085 0.268753
vt 0.374827 0.268753
vt 0.374827 0.114590
vt 0.340568 0.268753
vt 0.340568 0.114590
vt 0.306309 0.268753
vt 0.306309 0.114590
vt 0.272051 0.268753
vt 0.272051 0.114590
vt 0.237792 0.268753
vt 0.237792 0.114590
vt 0.203534 0.268753
vt 0.203534 0.114590
vt 0.169275 0.268753
vt 0.169275 0.114590
vt 0.202135 0.216925
vt 0.125000 0.245000
vt 0.047865 0.216925
vt 0.006823 0.145838
vt 0.021077 0.065000
vt 0.083958 0.012237
vt 0.166042 0.012237
vt 0.228923 0.065000
vt 0.243177 0.145838
vt 0.135017 0.268753
vt 0.135017 0.114590
vt 0.100758 0.268753
vt 0.100758 0.114590
vt 0.375000 0.245000
vt 0.452135 0.216925
vt 0.493177 0.145838
vt 0.478923 0.065000
vt 0.416042 0.012237
vt 0.333958 0.012237
vt 0.271077 0.065000
vt 0.256823 0.145838
vt 0.297865 0.216925
vt 0.000000 0.500000
vt 0.500000 0.500000
vt 0.500000 1.000000
vt 0.000000 1.000000
vt 0.490610 0.418834
vt -0.003295 0.418834
vt -0.003295 0.385766
vt 0.490610 0.385766
vt 0.500000 0.375508
vt 1.000000 0.375508
vt 1.000000 1.000000
s 1
f 48/1/1 1/2/1 2/3/2 49/4/2
f 49/4/2 2/3/2 3/5/3 50/6/3
f 50/6/3 3/5/3 4/7/4 51/8/4
f 51/8/4 4/7/4 6/9/5 5/10/5
f 5/10/5 6/9/5 7/11/6 52/12/6
f 52/12/6 7/11/6 9/13/7 8/14/7
f 8/14/7 9/13/7 10/15/8 53/16/8
f 30/17/9 32/18/9 34/19/9 36/20/9 38/21/9 40/22/9 42/23/9 44/24/9 46/25/9
f 53/16/8 10/15/8 11/26/10 54/27/10
f 54/28/10 11/29/10 1/2/1 48/1/1
f 12/30/11 13/31/11 15/32/12 14/33/12
f 14/33/12 15/32/12 17/34/13 16/35/13
f 16/35/13 17/34/13 19/36/14 18/37/14
f 18/37/14 19/36/14 21/38/15 20/39/15
f 20/39/15 21/38/15 23/40/16 22/41/16
f 22/41/16 23/40/16 25/42/17 24/43/17
f 24/43/17 25/42/17 27/44/18 26/45/18
f 26/45/18 27/44/18 29/46/19 28/47/19
f 28/48/19 29/49/19 13/31/11 12/30/11
f 12/50/9 14/51/9 16/52/9 18/53/9 20/54/9 22/55/9 24/56/9 26/57/9 28/58/9
f 30/59/20 31/60/20 33/61/21 32/62/21
f 32/62/21 33/61/21 35/63/22 34/64/22
f 34/64/22 35/63/22 37/65/23 36/66/23
f 36/66/23 37/65/23 39/67/24 38/68/24
f 38/68/24 39/67/24 41/69/25 40/70/25
f 40/70/25 41/69/25 43/71/26 42/72/26
f 42/72/26 43/71/26 45/73/27 44/74/27
f 44/74/27 45/73/27 47/75/28 46/76/28
f 46/77/28 47/78/28 31/60/20 30/59/20
f 48/79/9 49/80/9 50/81/9 51/82/9 5/83/9 52/84/9 8/85/9 53/86/9 54/87/9
f 55/88/29 56/89/29 58/90/29 57/91/29
f 57/91/30 58/90/30 60/92/30 59/93/30
f 59/93/31 60/92/31 62/94/31 61/95/31
f 61/95/32 62/94/32 64/96/32 63/97/32
f 63/97/33 64/96/33 66/98/33 65/99/33
f 65/99/34 66/98/34 68/100/34 67/101/34
f 67/101/35 68/100/35 70/102/35 69/103/35
f 58/104/36 56/105/36 72/106/36 70/107/36 68/108/36 66/109/36 64/110/36 62/111/36 60/112/36
f 69/103/37 70/102/37 72/113/37 71/114/37
f 71/114/38 72/113/38 56/115/38 55/116/38
f 55/117/9 57/118/9 59/119/9 61/120/9 63/121/9 65/122/9 67/123/9 69/124/9 71/125/9
f 73/126/39 74/127/39 76/128/39 75/129/39
f 77/130/40 78/131/40 80/132/40 79/133/40
f 77/130/39 81/133/39 82/132/39 78/131/39
f 83/134/41 84/135/41 86/136/41 85/128/41
