# Blender 4.1.0
# www.blender.org
o Cylinder.001
v 0.000001 -0.000001 -3.000000
v 0.000001 7.199999 -2.602477
v 1.301653 -0.000001 -2.702907
v 1.129174 7.199999 -2.344751
v 2.345496 -0.000001 -1.870470
v 2.034700 7.199999 -1.622618
v 2.924785 -0.000001 -0.667563
v 2.537229 7.199999 -0.579106
v 2.924785 -0.000001 0.667563
v 2.537229 7.199999 0.579106
v 2.345496 -0.000001 1.870470
v 2.034700 7.199999 1.622618
v 1.301653 -0.000001 2.702907
v 1.129174 7.199999 2.344751
v 0.000001 -0.000001 3.000000
v 0.000001 7.199999 2.602477
v -1.301650 -0.000001 2.702907
v -1.129171 7.199999 2.344751
v -2.345493 -0.000001 1.870470
v -2.034697 7.199999 1.622618
v -2.924782 -0.000001 0.667563
v -2.537226 7.199999 0.579106
v -2.924782 -0.000001 -0.667563
v -2.537226 7.199999 -0.579106
v -2.345493 -0.000001 -1.870470
v -2.034697 7.199999 -1.622618
v -1.301650 -0.000001 -2.702907
v -1.129171 7.199999 -2.344751
v 0.000001 2.400000 -3.266568
v 0.000001 4.799999 -3.266568
v 1.417312 4.799999 -2.943076
v 1.417312 2.400000 -2.943076
v 2.553907 4.799999 -2.036672
v 2.553907 2.400000 -2.036672
v 3.184670 4.799999 -0.726880
v 3.184670 2.400000 -0.726880
v 3.184670 4.799999 0.726880
v 3.184670 2.400000 0.726880
v 2.553907 4.799999 2.036672
v 2.553907 2.400000 2.036672
v 1.417312 4.799999 2.943076
v 1.417312 2.400000 2.943076
v 0.000001 4.799999 3.266568
v 0.000001 2.400000 3.266568
v -1.417310 4.799999 2.943076
v -1.417310 2.400000 2.943076
v -2.553904 4.799999 2.036672
v -2.553904 2.400000 2.036672
v -3.184667 4.799999 0.726880
v -3.184667 2.400000 0.726880
v -3.184667 4.799999 -0.726880
v -3.184667 2.400000 -0.726880
v -2.553904 4.799999 -2.036672
v -2.553904 2.400000 -2.036672
v -1.417310 4.799999 -2.943076
v -1.417310 2.400000 -2.943076
v 1.301653 7.199999 -2.702907
v 0.000001 7.199999 -3.000000
v 2.345496 7.199999 -1.870470
v 2.924785 7.199999 -0.667563
v 2.924785 7.199999 0.667563
v 2.345496 7.199999 1.870470
v 1.301653 7.199999 2.702907
v 0.000001 7.199999 3.000000
v -1.301650 7.199999 2.702907
v -2.345493 7.199999 1.870470
v -2.924782 7.199999 0.667563
v -2.924782 7.199999 -0.667563
v -2.345493 7.199999 -1.870470
v -1.301650 7.199999 -2.702907
v 0.000001 5.861416 -2.602477
v 1.129174 5.861416 -2.344751
v 2.034700 5.861416 -1.622618
v 2.537229 5.861416 -0.579106
v 2.537229 5.861416 0.579106
v 2.034700 5.861416 1.622618
v 1.129174 5.861416 2.344751
v 0.000001 5.861416 2.602477
v -1.129171 5.861416 2.344751
v -2.034697 5.861416 1.622618
v -2.537226 5.861416 0.579106
v -2.537226 5.861416 -0.579106
v -2.034697 5.861416 -1.622618
v -1.129171 5.861416 -2.344751
vn -0.0000 0.0549 -0.9985
vn -0.0000 0.1104 -0.9939
vn 0.4312 0.1104 -0.8955
vn 0.4332 0.0549 -0.8996
vn 0.7771 0.1104 -0.6197
vn 0.7807 0.0549 -0.6226
vn 0.9690 0.1104 -0.2212
vn 0.9735 0.0549 -0.2222
vn 0.9690 0.1104 0.2212
vn 0.9735 0.0549 0.2222
vn 0.7771 0.1104 0.6197
vn 0.7807 0.0549 0.6226
vn 0.4312 0.1104 0.8955
vn 0.4332 0.0549 0.8996
vn -0.0000 0.1104 0.9939
vn -0.0000 0.0549 0.9985
vn -0.4312 0.1104 0.8955
vn -0.4332 0.0549 0.8996
vn -0.7771 0.1104 0.6197
vn -0.7807 0.0549 0.6226
vn -0.9690 0.1104 0.2212
vn -0.9735 0.0549 0.2222
vn -0.9690 0.1104 -0.2212
vn -0.9735 0.0549 -0.2222
vn -0.7771 0.1104 -0.6197
vn -0.7807 0.0549 -0.6226
vn -0.4312 0.1104 -0.8955
vn -0.4332 0.0549 -0.8996
vn -0.0000 -1.0000 -0.0000
vn -0.4312 -0.1104 -0.8955
vn -0.4332 -0.0549 -0.8996
vn -0.0000 -0.0549 -0.9985
vn -0.0000 -0.1104 -0.9939
vn -0.7771 -0.1104 -0.6197
vn -0.7807 -0.0549 -0.6226
vn -0.9690 -0.1104 -0.2212
vn -0.9735 -0.0549 -0.2222
vn -0.9690 -0.1104 0.2212
vn -0.9735 -0.0549 0.2222
vn -0.7771 -0.1104 0.6197
vn -0.7807 -0.0549 0.6226
vn -0.4312 -0.1104 0.8955
vn -0.4332 -0.0549 0.8996
vn -0.0000 -0.1104 0.9939
vn -0.0000 -0.0549 0.9985
vn 0.4312 -0.1104 0.8955
vn 0.4332 -0.0549 0.8996
vn 0.7771 -0.1104 0.6197
vn 0.7807 -0.0549 0.6226
vn 0.9690 -0.1104 0.2212
vn 0.9735 -0.0549 0.2222
vn 0.9690 -0.1104 -0.2212
vn 0.9735 -0.0549 -0.2222
vn 0.7771 -0.1104 -0.6197
vn 0.7807 -0.0549 -0.6226
vn 0.4312 -0.1104 -0.8955
vn 0.4332 -0.0549 -0.8996
vn -0.0000 1.0000 -0.0000
vn -0.6235 -0.0000 0.7818
vn -0.9010 -0.0000 0.4339
vn -1.0000 -0.0000 -0.0000
vn -0.9010 -0.0000 -0.4339
vn -0.6235 -0.0000 -0.7818
vn -0.2225 -0.0000 -0.9749
vn 0.2225 -0.0000 -0.9749
vn 0.6235 -0.0000 -0.7818
vn 0.9010 -0.0000 -0.4339
vn 1.0000 -0.0000 -0.0000
vn 0.9010 -0.0000 0.4339
vn 0.6235 -0.0000 0.7818
vn 0.2225 -0.0000 0.9749
vn -0.2225 -0.0000 0.9749
vt 0.482142 0.356751
vt 0.482142 0.529896
vt 0.385751 0.529896
vt 0.385751 0.356751
vt 0.289360 0.529896
vt 0.289360 0.356751
vt 0.192970 0.529896
vt 0.192970 0.356751
vt 0.096579 0.529896
vt 0.096579 0.356751
vt 0.000188 0.529897
vt 0.000188 0.356751
vt 0.674924 0.356751
vt 0.674924 0.529896
vt 0.578533 0.529896
vt 0.578533 0.356751
vt 0.482142 0.356751
vt 0.385751 0.356751
vt 0.289360 0.529896
vt 0.289360 0.356751
vt 0.192969 0.356751
vt 0.096579 0.356751
vt 0.000188 0.529897
vt 0.000188 0.356751
vt 0.674924 0.356751
vt 0.578533 0.529896
vt 0.578533 0.356751
vt 0.446527 0.395801
vt 0.384207 0.410025
vt 0.321888 0.395801
vt 0.271912 0.355947
vt 0.244177 0.298355
vt 0.244177 0.234433
vt 0.271912 0.176841
vt 0.321888 0.136986
vt 0.384207 0.122762
vt 0.446527 0.136986
vt 0.496503 0.176841
vt 0.524238 0.234433
vt 0.524238 0.298355
vt 0.496503 0.355947
vt 0.578533 0.010460
vt 0.578533 0.183605
vt 0.482142 0.183605
vt 0.482142 0.010460
vt 0.674924 0.010460
vt 0.674924 0.183605
vt 0.096579 0.010460
vt 0.096579 0.183605
vt 0.000188 0.183605
vt 0.000188 0.010460
vt 0.192969 0.010460
vt 0.192969 0.183605
vt 0.289360 0.010460
vt 0.289360 0.183605
vt 0.385751 0.010460
vt 0.385751 0.183605
vt 0.482142 0.010460
vt 0.482142 0.183605
vt 0.578533 0.010460
vt 0.578533 0.183605
vt 0.674924 0.010460
vt 0.674924 0.183605
vt 0.096579 0.010460
vt 0.096579 0.183605
vt 0.000188 0.183605
vt 0.192970 0.010460
vt 0.192970 0.183605
vt 0.289360 0.010460
vt 0.289360 0.183605
vt 0.385751 0.010460
vt 0.385751 0.183605
vt 0.897826 0.210185
vt 0.928852 0.185443
vt 0.959398 0.209802
vt 0.914778 0.245385
vt 0.946070 0.149690
vt 0.984159 0.158383
vt 0.946070 0.110007
vt 0.984159 0.101313
vt 0.928852 0.074254
vt 0.959397 0.049895
vt 0.897827 0.049512
vt 0.914778 0.014312
vt 0.859138 0.040681
vt 0.859138 0.001612
vt 0.820450 0.049512
vt 0.803499 0.014312
vt 0.789425 0.074254
vt 0.758880 0.049895
vt 0.772207 0.110007
vt 0.734118 0.101313
vt 0.772207 0.149690
vt 0.734118 0.158384
vt 0.789425 0.185443
vt 0.758880 0.209802
vt 0.820450 0.210185
vt 0.803499 0.245385
vt 0.859138 0.219015
vt 0.859139 0.258084
vt 0.289395 0.560694
vt 0.385497 0.560694
vt 0.385497 0.703631
vt 0.289395 0.703631
vt 0.481600 0.560694
vt 0.481600 0.703631
vt 0.577702 0.560694
vt 0.577702 0.703631
vt 0.673804 0.560694
vt 0.673804 0.703631
vt 0.001088 0.559852
vt 0.097191 0.559852
vt 0.097191 0.702789
vt 0.001088 0.702789
vt 0.193293 0.559852
vt 0.193293 0.702789
vt 0.289395 0.559852
vt 0.289395 0.702789
vt 0.385497 0.559852
vt 0.385497 0.702789
vt 0.481600 0.559852
vt 0.481600 0.702789
vt 0.577702 0.559852
vt 0.577702 0.702789
vt 0.673804 0.559852
vt 0.673804 0.702789
vt 0.001088 0.560694
vt 0.097191 0.560694
vt 0.097191 0.703631
vt 0.001088 0.703631
vt 0.193293 0.560694
vt 0.193293 0.703631
s 1
f 30/1/1 58/2/2 57/3/3 31/4/4
f 31/4/4 57/3/3 59/5/5 33/6/6
f 33/6/6 59/5/5 60/7/7 35/8/8
f 35/8/8 60/7/7 61/9/9 37/10/10
f 37/10/10 61/9/9 62/11/11 39/12/12
f 39/13/12 62/14/11 63/15/13 41/16/14
f 41/16/14 63/15/13 64/2/15 43/17/16
f 43/17/16 64/2/15 65/3/17 45/18/18
f 45/18/18 65/3/17 66/19/19 47/20/20
f 47/20/20 66/19/19 67/7/21 49/21/22
f 49/21/22 67/7/21 68/9/23 51/22/24
f 51/22/24 68/9/23 69/23/25 53/24/26
f 53/25/26 69/14/25 70/26/27 55/27/28
f 55/27/28 70/26/27 58/2/2 30/1/1
s 0
f 1/28/29 3/29/29 5/30/29 7/31/29 9/32/29 11/33/29 13/34/29 15/35/29 17/36/29 19/37/29 21/38/29 23/39/29 25/40/29 27/41/29
s 1
f 27/42/30 56/43/31 29/44/32 1/45/33
f 56/43/31 55/27/28 30/1/1 29/44/32
f 25/46/34 54/47/35 56/43/31 27/42/30
f 54/47/35 53/25/26 55/27/28 56/43/31
f 23/48/36 52/49/37 54/50/35 25/51/34
f 52/49/37 51/22/24 53/24/26 54/50/35
f 21/52/38 50/53/39 52/49/37 23/48/36
f 50/53/39 49/21/22 51/22/24 52/49/37
f 19/54/40 48/55/41 50/53/39 21/52/38
f 48/55/41 47/20/20 49/21/22 50/53/39
f 17/56/42 46/57/43 48/55/41 19/54/40
f 46/57/43 45/18/18 47/20/20 48/55/41
f 15/58/44 44/59/45 46/57/43 17/56/42
f 44/59/45 43/17/16 45/18/18 46/57/43
f 13/60/46 42/61/47 44/59/45 15/58/44
f 42/61/47 41/16/14 43/17/16 44/59/45
f 11/62/48 40/63/49 42/61/47 13/60/46
f 40/63/49 39/13/12 41/16/14 42/61/47
f 9/64/50 38/65/51 40/66/49 11/51/48
f 38/65/51 37/10/10 39/12/12 40/66/49
f 7/67/52 36/68/53 38/65/51 9/64/50
f 36/68/53 35/8/8 37/10/10 38/65/51
f 5/69/54 34/70/55 36/68/53 7/67/52
f 34/70/55 33/6/6 35/8/8 36/68/53
f 3/71/56 32/72/57 34/70/55 5/69/54
f 32/72/57 31/4/4 33/6/6 34/70/55
f 1/45/33 29/44/32 32/72/57 3/71/56
f 29/44/32 30/1/1 31/4/4 32/72/57
s 0
f 2/73/58 4/74/58 57/75/58 58/76/58
f 4/74/58 6/77/58 59/78/58 57/75/58
f 6/77/58 8/79/58 60/80/58 59/78/58
f 8/79/58 10/81/58 61/82/58 60/80/58
f 10/81/58 12/83/58 62/84/58 61/82/58
f 12/83/58 14/85/58 63/86/58 62/84/58
f 14/85/58 16/87/58 64/88/58 63/86/58
f 16/87/58 18/89/58 65/90/58 64/88/58
f 18/89/58 20/91/58 66/92/58 65/90/58
f 20/91/58 22/93/58 67/94/58 66/92/58
f 22/93/58 24/95/58 68/96/58 67/94/58
f 24/95/58 26/97/58 69/98/58 68/96/58
f 26/97/58 28/99/58 70/100/58 69/98/58
f 28/99/58 2/73/58 58/76/58 70/100/58
f 72/74/58 71/73/58 84/99/58 83/97/58 82/95/58 81/93/58 80/91/58 79/89/58 78/87/58 77/85/58 76/83/58 75/81/58 74/79/58 73/77/58
f 72/101/59 73/102/59 6/103/59 4/104/59
f 73/102/60 74/105/60 8/106/60 6/103/60
f 74/105/61 75/107/61 10/108/61 8/106/61
f 75/107/62 76/109/62 12/110/62 10/108/62
f 76/111/63 77/112/63 14/113/63 12/114/63
f 77/112/64 78/115/64 16/116/64 14/113/64
f 78/115/65 79/117/65 18/118/65 16/116/65
f 79/117/66 80/119/66 20/120/66 18/118/66
f 80/119/67 81/121/67 22/122/67 20/120/67
f 81/121/68 82/123/68 24/124/68 22/122/68
f 82/123/69 83/125/69 26/126/69 24/124/69
f 83/127/70 84/128/70 28/129/70 26/130/70
f 84/128/71 71/131/71 2/132/71 28/129/71
f 71/131/72 72/101/72 4/104/72 2/132/72
