# Blender 4.1.0
# www.blender.org
o Cube.26921
v 0.200025 0.552782 -0.189744
v 0.200025 0.853362 -0.189744
v 0.056581 0.552782 -0.486178
v 0.056581 0.853362 -0.486178
v 0.747694 0.552782 -0.189744
v 0.747694 0.853362 -0.189744
v 0.200025 0.853362 -0.337707
v 0.200025 0.552782 -0.337707
v 0.441665 0.008828 -0.177787
v 0.573485 0.008828 -0.177787
v 0.441665 0.851400 -0.177787
v 0.573485 0.851400 -0.177787
v -0.573485 0.851400 -0.177787
v -0.441665 0.851400 -0.177787
v -0.573485 0.008828 -0.177787
v -0.441665 0.008828 -0.177787
v -0.199206 0.552782 -0.337707
v -0.199206 0.853362 -0.337707
v -0.747694 0.853362 -0.189744
v -0.747694 0.552782 -0.189744
v -0.056581 0.853362 -0.475589
v -0.056581 0.552782 -0.475589
v -0.199206 0.853362 -0.189744
v -0.199206 0.552782 -0.189744
vn -0.0000 -0.0000 1.0000
vn -0.7192 -0.0000 0.6948
vn -1.0000 -0.0000 -0.0000
vn 1.0000 -0.0000 -0.0000
vn 0.6950 -0.0000 0.7190
vt 0.780599 0.003749
vt 0.990669 0.003749
vt 0.990669 0.675120
vt 0.780599 0.675120
vt 0.740217 0.762646
vt 0.261206 0.762646
vt 0.261206 0.286416
vt 0.740217 0.286416
vt 0.740217 0.168517
vt 0.261206 0.168517
vt 0.261206 0.004018
vt 0.740217 0.004018
vt 0.261206 0.168517
vt 0.740217 0.004019
s 0
f 9/1/1 10/2/1 12/3/1 11/4/1
f 5/5/1 6/6/1 2/7/1 1/8/1
f 8/9/2 7/10/2 4/11/2 3/12/2
f 1/8/3 2/7/3 7/10/3 8/9/3
f 24/8/4 17/9/4 18/13/4 23/7/4
f 17/9/5 22/14/5 21/11/5 18/13/5
f 20/5/1 24/8/1 23/7/1 19/6/1
f 16/1/1 14/4/1 13/3/1 15/2/1
