# Blender 4.1.0
# www.blender.org
mtllib Arrow.mtl
o Arrow
v 0.000000 -0.190964 -0.004611
v 0.000000 0.339784 -0.001234
v 0.003994 -0.190964 0.002306
v 0.001068 0.339784 0.000617
v -0.003994 -0.190964 0.002306
v -0.001068 0.339784 0.000617
v 0.000000 -0.126860 -0.004611
v 0.003994 -0.126860 0.002306
v -0.003994 -0.126860 0.002306
v 0.000000 -0.203972 -0.012305
v 0.010656 -0.203972 0.006152
v -0.010656 -0.203972 0.006152
v 0.000000 -0.139869 -0.012305
v 0.010656 -0.139869 0.006152
v -0.010656 -0.139869 0.006152
v 0.000000 0.310212 -0.004487
v 0.006546 0.310212 0.003779
v -0.006546 0.310212 0.003779
v -0.003886 0.310212 0.002244
v 0.000000 0.310212 -0.007558
v 0.003886 0.310212 0.002244
vn 0.8566 -0.0000 -0.5160
vn -0.0000 0.2092 -0.9779
vn 0.8752 -0.0000 -0.4838
vn 0.8469 0.2092 0.4889
vn -0.0186 -0.0000 0.9998
vn -0.8469 0.2092 0.4889
vn 0.1676 0.0001 -0.9859
vn 0.9376 0.0001 0.3478
vn -0.7700 0.0001 0.6381
vn 1.0000 -0.0000 -0.0000
vn 0.5000 -0.0000 -0.8660
vn 0.5000 -0.0000 0.8660
vn -0.0000 0.0003 -1.0000
vn -0.8660 0.0003 0.5000
vn 0.8660 0.0003 0.5000
vt 0.587440 0.779482
vt 0.753312 0.824502
vt 0.742517 0.827870
vt 0.521302 0.800116
vt 0.785665 0.761177
vt 0.785665 0.821514
vt 0.768352 0.822286
vt 0.679592 0.765908
vt 0.131864 0.000000
vt 0.131864 0.127905
vt 0.066062 0.127905
vt 0.066061 0.000000
vt 0.197925 0.000008
vt 0.197666 0.127913
vt 0.132123 0.000000
vt 0.065802 0.000000
vt 0.000259 0.127913
vt 0.000000 0.000008
vt 0.993208 0.645228
vt 0.993208 0.274416
vt 0.415369 0.275368
vt 0.415369 0.646181
vt 1.002737 0.273070
vt 1.002737 0.647591
vt 0.406509 0.645249
vt 0.406509 0.270727
vt 0.997437 0.277941
vt 0.997437 0.644116
vt 0.403482 0.645996
vt 0.399653 0.276111
vt 0.130980 0.999992
vt 0.066946 0.999992
vt 0.195014 1.000000
vt 0.002913 1.000000
s 1
usemtl Arrows
f 20/1/2 2/2/2 4/3/4 17/4/4
f 17/5/4 4/6/4 6/7/6 18/8/6
f 18/8/6 6/7/6 2/2/2 20/1/2
f 5/9/5 9/10/9 7/11/7 1/12/1
f 3/13/3 8/14/8 9/10/9 5/15/5
f 1/16/1 7/11/7 8/17/8 3/18/3
f 7/19/7 1/20/1 10/21/10 13/22/10
f 5/23/5 9/24/9 15/25/12 12/26/12
f 3/27/3 8/28/8 14/29/11 11/30/11
f 9/10/9 19/31/14 16/32/13 7/11/7
f 8/14/8 21/33/15 19/31/14 9/10/9
f 7/11/7 16/32/13 21/34/15 8/17/8
